<?xml version="1.0" encoding="UTF-8" standalone="no"?>
<svg
   xmlns:dc="http://purl.org/dc/elements/1.1/"
   xmlns:cc="http://creativecommons.org/ns#"
   xmlns:rdf="http://www.w3.org/1999/02/22-rdf-syntax-ns#"
   xmlns:svg="http://www.w3.org/2000/svg"
   xmlns="http://www.w3.org/2000/svg"
   width="799.06158"
   height="66.377808"
   viewBox="0 0 211.41838 17.562462"
   version="1.1"
   id="svg8">
  <defs
     id="defs2" />
  <metadata
     id="metadata5">
    <rdf:RDF>
      <cc:Work
         rdf:about="">
        <dc:format>image/svg+xml</dc:format>
        <dc:type
           rdf:resource="http://purl.org/dc/dcmitype/StillImage" />
        <dc:title></dc:title>
      </cc:Work>
    </rdf:RDF>
  </metadata>
  <text
     xml:space="preserve"
     style="font-style:normal;font-weight:normal;font-size:10.58333397px;line-height:1.25;font-family:sans-serif;letter-spacing:0px;word-spacing:0px;fill:#000000;fill-opacity:1;stroke:none;stroke-width:0.26458335"
     x="55.757736"
     y="11.636527"
     id="text4586"><tspan
       id="tspan4584"
       x="55.757736"
       y="21.29203"
       style="stroke-width:0.26458335"></tspan></text>
  <g
     id="text4590"
     style="font-style:normal;font-variant:normal;font-weight:normal;font-stretch:normal;font-size:10.58333397px;line-height:1.25;font-family:'Fredoka One';-inkscape-font-specification:'Fredoka One';letter-spacing:1.35466671px;word-spacing:0px;fill:#54455c;fill-opacity:1;stroke:none;stroke-width:0.26458335"
     aria-label="YOUR DOG ">
    <path
       id="path4860"
       style="font-style:normal;font-variant:normal;font-weight:normal;font-stretch:normal;font-family:'Fredoka One';-inkscape-font-specification:'Fredoka One';letter-spacing:1.35466671px;fill:#54455c;fill-opacity:1;stroke-width:0.26458335"
       d="m 9.8613782,5.21784 q 0.5185838,0.3598334 0.5185838,0.6985001 0,0.2010833 -0.243417,0.5609167 L 7.8505447,9.8956736 V 11.91709 q 0,0.243417 -0.021167,0.370417 -0.010583,0.116417 -0.09525,0.275167 -0.084667,0.15875 -0.28575,0.22225 -0.2010833,0.0635 -0.53975,0.0635 -0.3386667,0 -0.5397501,-0.0635 -0.2010833,-0.0635 -0.28575,-0.22225 -0.084667,-0.169334 -0.1058333,-0.28575 -0.010583,-0.127 -0.010583,-0.381 V 9.8956736 L 3.6807111,6.4772568 Q 3.4372944,6.1174234 3.4372944,5.9163401 q 0,-0.3386667 0.4656667,-0.6455834 0.4656667,-0.3175 0.6667501,-0.3175 0.2010833,0 0.3175,0.084667 0.1799167,0.1164166 0.381,0.4339166 L 6.908628,8.0965069 8.5490447,5.47184 Q 8.7501281,5.15434 8.8982948,5.05909 9.0464614,4.9532567 9.2369615,4.9532567 q 0.2010833,0 0.6244167,0.2645833 z" />
    <path
       id="path4862"
       style="font-style:normal;font-variant:normal;font-weight:normal;font-stretch:normal;font-family:'Fredoka One';-inkscape-font-specification:'Fredoka One';letter-spacing:1.35466671px;fill:#54455c;fill-opacity:1;stroke-width:0.26458335"
       d="m 15.952583,4.9744234 q 1.566334,0 2.719917,1.1324167 1.153584,1.1324167 1.153584,2.8151668 0,1.6721671 -1.100667,2.8575001 -1.100667,1.17475 -2.709334,1.17475 -1.608666,0 -2.741083,-1.164167 -1.121833,-1.164166 -1.121833,-2.7728331 0,-0.8784167 0.3175,-1.6404167 0.3175,-0.7725834 0.846666,-1.2911668 0.529167,-0.5185833 1.217084,-0.8149167 0.687916,-0.2963333 1.418166,-0.2963333 z m -1.926166,3.9899169 q 0,0.9419167 0.60325,1.5345837 0.613833,0.582083 1.36525,0.582083 0.751416,0 1.354667,-0.5715 0.60325,-0.5715 0.60325,-1.5345834 0,-0.9630834 -0.613834,-1.5451668 -0.60325,-0.5820833 -1.354667,-0.5820833 -0.751416,0 -1.354666,0.5926667 -0.60325,0.5820833 -0.60325,1.5240001 z" />
    <path
       id="path4864"
       style="font-style:normal;font-variant:normal;font-weight:normal;font-stretch:normal;font-family:'Fredoka One';-inkscape-font-specification:'Fredoka One';letter-spacing:1.35466671px;fill:#54455c;fill-opacity:1;stroke-width:0.26458335"
       d="M 26.942218,5.3554234 Q 27.048051,5.18609 27.249135,5.12259 q 0.201083,-0.0635 0.497416,-0.0635 0.306917,0 0.486834,0.052917 0.179916,0.052917 0.275166,0.127 0.09525,0.074083 0.137584,0.22225 0.0635,0.1799167 0.0635,0.5503334 v 3.1961668 q 0,1.3970001 -0.867834,2.5400001 -0.423333,0.53975 -1.090083,0.878417 -0.66675,0.328083 -1.481667,0.328083 -0.804333,0 -1.471083,-0.338667 -0.656167,-0.338666 -1.068917,-0.889 -0.85725,-1.121833 -0.85725,-2.5399997 V 6.0010067 q 0,-0.254 0.01058,-0.3704166 0.02117,-0.1270001 0.105834,-0.2857501 0.08467,-0.15875 0.28575,-0.22225 0.201083,-0.0635 0.53975,-0.0635 0.338666,0 0.53975,0.0635 0.201083,0.0635 0.275166,0.22225 0.127,0.2434167 0.127,0.6667501 v 3.1750002 q 0,0.6455833 0.3175,1.2276667 0.15875,0.296333 0.476251,0.47625 0.3175,0.179917 0.751416,0.179917 0.772584,0 1.153584,-0.5715 0.381,-0.5715004 0.381,-1.3229171 V 5.9375067 q 0,-0.41275 0.105833,-0.5820833 z" />
    <path
       id="path4866"
       style="font-style:normal;font-variant:normal;font-weight:normal;font-stretch:normal;font-family:'Fredoka One';-inkscape-font-specification:'Fredoka One';letter-spacing:1.35466671px;fill:#54455c;fill-opacity:1;stroke-width:0.26458335"
       d="m 36.85417,11.514924 q 0.15875,0.381 0.15875,0.550333 0,0.402167 -0.656166,0.677333 -0.338667,0.148167 -0.550334,0.148167 -0.201083,0 -0.338666,-0.09525 -0.127001,-0.105833 -0.190501,-0.211667 -0.105833,-0.201083 -0.8255,-1.915583 l -0.328083,0.02117 h -1.3335 v 1.195916 q 0,0.243417 -0.02117,0.370417 -0.01058,0.116417 -0.09525,0.275167 -0.148166,0.28575 -0.8255,0.28575 -0.740833,0 -0.867833,-0.391584 -0.0635,-0.179916 -0.0635,-0.550333 V 6.0010067 q 0,-0.2434166 0.01058,-0.3598333 0.02117,-0.127 0.105834,-0.28575 0.148166,-0.28575 0.8255,-0.28575 h 2.286 q 0.931333,0 1.80975,0.6773333 0.423333,0.3280834 0.6985,0.8890001 0.275167,0.5609167 0.275167,1.2488334 0,1.1959167 -0.79375,1.9685001 0.232833,0.5609167 0.719666,1.6615837 z m -4.064,-2.6987504 h 1.354667 q 0.306916,0 0.613833,-0.2328334 0.306917,-0.2328333 0.306917,-0.6985 0,-0.4656667 -0.306917,-0.6985 -0.306917,-0.2434167 -0.635,-0.2434167 h -1.3335 z" />
    <path
       id="path4868"
       style="font-style:normal;font-variant:normal;font-weight:normal;font-stretch:normal;font-family:'Fredoka One';-inkscape-font-specification:'Fredoka One';letter-spacing:1.35466671px;fill:#54455c;fill-opacity:1;stroke-width:0.26458335"
       d="m 43.931941,5.05909 1.957917,0.010583 q 1.534584,0 2.69875,1.11125 1.164167,1.1006668 1.164167,2.7199169 0,1.6086667 -1.143,2.7622497 -1.132417,1.153584 -2.751667,1.153584 h -1.93675 q -0.645583,0 -0.804333,-0.264584 -0.127,-0.22225 -0.127,-0.677333 V 5.9904234 q 0,-0.254 0.01058,-0.3704167 0.02117,-0.1164167 0.105833,-0.2751667 0.148167,-0.28575 0.8255,-0.28575 z m 1.957917,5.884334 q 0.762,0 1.375834,-0.560917 0.613833,-0.5715 0.613833,-1.4287501 0,-0.85725 -0.60325,-1.4287501 -0.592667,-0.5820833 -1.397,-0.5820833 h -1.016 v 4.0005005 z" />
    <path
       id="path4870"
       style="font-style:normal;font-variant:normal;font-weight:normal;font-stretch:normal;font-family:'Fredoka One';-inkscape-font-specification:'Fredoka One';letter-spacing:1.35466671px;fill:#54455c;fill-opacity:1;stroke-width:0.26458335"
       d="m 55.426766,4.9744234 q 1.566333,0 2.719916,1.1324167 1.153584,1.1324167 1.153584,2.8151668 0,1.6721671 -1.100667,2.8575001 -1.100667,1.17475 -2.709333,1.17475 -1.608667,0 -2.741084,-1.164167 -1.121833,-1.164166 -1.121833,-2.7728331 0,-0.8784167 0.3175,-1.6404167 0.3175,-0.7725834 0.846666,-1.2911668 0.529167,-0.5185833 1.217084,-0.8149167 0.687917,-0.2963333 1.418167,-0.2963333 z m -1.926167,3.9899169 q 0,0.9419167 0.60325,1.5345837 0.613833,0.582083 1.36525,0.582083 0.751417,0 1.354667,-0.5715 0.60325,-0.5715 0.60325,-1.5345834 0,-0.9630834 -0.613834,-1.5451668 -0.60325,-0.5820833 -1.354666,-0.5820833 -0.751417,0 -1.354667,0.5926667 -0.60325,0.5820833 -0.60325,1.5240001 z" />
    <path
       id="path4872"
       style="font-style:normal;font-variant:normal;font-weight:normal;font-stretch:normal;font-family:'Fredoka One';-inkscape-font-specification:'Fredoka One';letter-spacing:1.35466671px;fill:#54455c;fill-opacity:1;stroke-width:0.26458335"
       d="m 65.389815,8.1494235 h 1.862667 q 0.5715,0.021167 0.6985,0.2963334 0.105833,0.2010833 0.105833,0.5926667 v 2.3283334 q 0,0.338667 -0.296333,0.645583 -0.889,0.92075 -2.667001,0.92075 -1.576916,0 -2.741083,-1.185333 -1.164167,-1.195917 -1.164167,-2.8786667 0,-1.6827501 1.185334,-2.8045835 1.185333,-1.1324168 2.794,-1.1324168 1.248833,0 2.360083,0.8255001 0.28575,0.2116666 0.28575,0.47625 0,0.254 -0.243416,0.5926667 -0.41275,0.5609167 -0.751417,0.5609167 -0.201083,0 -0.645583,-0.28575 -0.4445,-0.2963334 -1.058334,-0.2963334 -0.804333,0 -1.42875,0.5715001 -0.624417,0.5609167 -0.624417,1.4816667 0,0.9101667 0.635,1.5557501 0.635,0.635 1.439334,0.635 0.582083,0 1.04775,-0.1905 V 9.7051736 h -0.836084 q -0.328083,0 -0.465666,-0.084667 -0.137584,-0.084667 -0.179917,-0.2434167 -0.04233,-0.1693334 -0.04233,-0.4445 0,-0.2857501 0.04233,-0.4550834 0.05292,-0.1693333 0.179917,-0.2328334 0.1905,-0.09525 0.508,-0.09525 z" />
  </g>
  <g
     transform="translate(-59.773626,-152.68254)"
     id="text848-6"
     style="font-style:normal;font-weight:normal;font-size:17.63888931px;line-height:1.25;font-family:sans-serif;letter-spacing:0px;word-spacing:0px;fill:#54455c;fill-opacity:1;stroke:none;stroke-width:0.26458332"
     aria-label=".">
    <path
       id="path4609-9"
       style="font-style:normal;font-variant:normal;font-weight:normal;font-stretch:normal;font-size:17.63888931px;font-family:'Fredoka One';-inkscape-font-specification:'Fredoka One';fill:#54455c;fill-opacity:1;stroke-width:0.26458332"
       d="m 267.76914,162.59299 q 0.29986,0.29986 0.29986,1.23472 v 0.0705 q 0,0.42334 -0.0353,0.635 -0.0176,0.19403 -0.17639,0.47625 -0.26459,0.51153 -1.34056,0.51153 -1.05833,0 -1.41111,-0.33514 -0.33514,-0.33514 -0.33514,-1.27 v -0.0705 q 0,-0.4057 0.0176,-0.61736 0.0353,-0.21167 0.17639,-0.47625 0.26458,-0.52917 1.32292,-0.52917 1.07597,0 1.48166,0.37042 z" />
  </g>
  <flowRoot
     style="fill:black;fill-opacity:1;stroke:none;font-family:sans-serif;font-style:normal;font-weight:normal;font-size:40px;line-height:1.25;letter-spacing:0px;word-spacing:0px"
     id="flowRoot4789"
     xml:space="preserve"><flowRegion
       id="flowRegion4791"><rect
         y="117.48895"
         x="261.31473"
         height="51.83102"
         width="12.957755"
         id="rect4793" /></flowRegion><flowPara
       id="flowPara4795"></flowPara></flowRoot>  <g
     id="text4590-6"
     style="font-style:normal;font-variant:normal;font-weight:normal;font-stretch:normal;font-size:10.58333397px;line-height:1.25;font-family:'Fredoka One';-inkscape-font-specification:'Fredoka One';letter-spacing:1.35466671px;word-spacing:0px;opacity:1;fill:#321241;fill-opacity:1;stroke:none;stroke-width:0.26458335"
     aria-label="NEEDS FRIENDS TOO">
    <path
       id="path4829"
       style="font-style:normal;font-variant:normal;font-weight:normal;font-stretch:normal;font-family:'Fredoka One';-inkscape-font-specification:'Fredoka One';letter-spacing:1.35466671px;fill:#321241;fill-opacity:1;stroke-width:0.26458335"
       d="m 79.293378,5.3555814 q 0.105834,-0.1905 0.306917,-0.254 0.201083,-0.0635 0.497417,-0.0635 0.306917,0 0.486833,0.052917 0.1905,0.052917 0.275167,0.127 0.09525,0.074083 0.137583,0.22225 0.0635,0.1693333 0.0635,0.53975 v 5.8737499 q 0,0.254 -0.02117,0.370417 -0.01058,0.116417 -0.09525,0.275167 -0.148167,0.28575 -0.825501,0.28575 -0.41275,0 -0.5715,-0.0635 -0.15875,-0.0635 -0.264583,-0.201083 -2.38125,-3.1750007 -3.132667,-4.1486674 v 3.4819164 q 0,0.254 -0.02117,0.370417 -0.01058,0.116417 -0.09525,0.275167 -0.148167,0.28575 -0.8255,0.28575 -0.656167,0 -0.804334,-0.28575 -0.08467,-0.15875 -0.105833,-0.28575 -0.01058,-0.127 -0.01058,-0.370417 V 5.9376648 q 0,-0.4021667 0.09525,-0.5820834 0.105834,-0.1905 0.306917,-0.254 0.201084,-0.0635 0.518584,-0.0635 0.3175,0 0.497416,0.0635 0.1905,0.052917 0.264584,0.127 0.04233,0.03175 0.243416,0.2751667 2.233084,3.0374168 2.9845,4.0110836 V 5.9376648 q 0,-0.4021667 0.09525,-0.5820834 z" />
    <path
       id="path4831"
       style="font-style:normal;font-variant:normal;font-weight:normal;font-stretch:normal;font-family:'Fredoka One';-inkscape-font-specification:'Fredoka One';letter-spacing:1.35466671px;fill:#321241;fill-opacity:1;stroke-width:0.26458335"
       d="m 85.142821,10.911832 h 3.259667 q 0.243416,0 0.359833,0.02117 0.127,0.01058 0.28575,0.09525 0.28575,0.148167 0.28575,0.8255 0,0.740834 -0.391583,0.867834 -0.179917,0.0635 -0.550334,0.0635 h -4.191 q -0.740833,0 -0.867833,-0.402167 -0.0635,-0.169333 -0.0635,-0.53975 V 5.9588315 q 0,-0.5397501 0.201083,-0.7302501 0.201083,-0.2010833 0.762,-0.2010833 h 4.169834 q 0.243416,0 0.359833,0.021167 0.127,0.010583 0.28575,0.09525 0.28575,0.1481667 0.28575,0.8255001 0,0.7408334 -0.391583,0.8678334 -0.179917,0.0635 -0.550334,0.0635 h -3.249083 v 1.0689167 h 2.0955 q 0.243416,0 0.359833,0.021167 0.127,0.010583 0.28575,0.09525 0.28575,0.1481667 0.28575,0.8255 0,0.7408334 -0.402167,0.8678334 -0.179916,0.0635 -0.550333,0.0635 h -2.074333 z" />
    <path
       id="path4833"
       style="font-style:normal;font-variant:normal;font-weight:normal;font-stretch:normal;font-family:'Fredoka One';-inkscape-font-specification:'Fredoka One';letter-spacing:1.35466671px;fill:#321241;fill-opacity:1;stroke-width:0.26458335"
       d="m 93.256766,10.911832 h 3.259667 q 0.243416,0 0.359833,0.02117 0.127,0.01058 0.28575,0.09525 0.28575,0.148167 0.28575,0.8255 0,0.740834 -0.391583,0.867834 -0.179917,0.0635 -0.550334,0.0635 h -4.191 q -0.740833,0 -0.867833,-0.402167 -0.0635,-0.169333 -0.0635,-0.53975 V 5.9588315 q 0,-0.5397501 0.201083,-0.7302501 0.201083,-0.2010833 0.762,-0.2010833 h 4.169834 q 0.243416,0 0.359833,0.021167 0.127,0.010583 0.28575,0.09525 0.28575,0.1481667 0.28575,0.8255001 0,0.7408334 -0.391583,0.8678334 -0.179917,0.0635 -0.550334,0.0635 h -3.249083 v 1.0689167 h 2.0955 q 0.243416,0 0.359833,0.021167 0.127,0.010583 0.28575,0.09525 0.28575,0.1481667 0.28575,0.8255 0,0.7408334 -0.402167,0.8678334 -0.179916,0.0635 -0.550333,0.0635 h -2.074333 z" />
    <path
       id="path4835"
       style="font-style:normal;font-variant:normal;font-weight:normal;font-stretch:normal;font-family:'Fredoka One';-inkscape-font-specification:'Fredoka One';letter-spacing:1.35466671px;fill:#321241;fill-opacity:1;stroke-width:0.26458335"
       d="m 100.43938,5.0169147 1.95791,0.010583 q 1.53459,0 2.69875,1.11125 1.16417,1.1006668 1.16417,2.7199169 0,1.608667 -1.143,2.76225 -1.13242,1.153584 -2.75167,1.153584 h -1.93675 q -0.645581,0 -0.804331,-0.264584 -0.127,-0.22225 -0.127,-0.677333 V 5.9482481 q 0,-0.254 0.01058,-0.3704167 0.02117,-0.1164166 0.105833,-0.2751667 0.148167,-0.28575 0.825505,-0.28575 z m 1.95791,5.8843333 q 0.762,0 1.37584,-0.560916 0.61383,-0.5715003 0.61383,-1.4287504 0,-0.85725 -0.60325,-1.4287501 -0.59267,-0.5820833 -1.397,-0.5820833 h -1.016 v 4.0004998 z" />
    <path
       id="path4837"
       style="font-style:normal;font-variant:normal;font-weight:normal;font-stretch:normal;font-family:'Fredoka One';-inkscape-font-specification:'Fredoka One';letter-spacing:1.35466671px;fill:#321241;fill-opacity:1;stroke-width:0.26458335"
       d="m 107.97587,11.694998 q -0.27517,-0.338666 -0.27517,-0.60325 0,-0.275166 0.45509,-0.719666 0.26458,-0.254 0.56091,-0.254 0.29634,0 0.8255,0.529166 0.14817,0.179917 0.42334,0.34925 0.27516,0.15875 0.508,0.15875 0.98425,0 0.98425,-0.804333 0,-0.243417 -0.27517,-0.4021666 -0.26458,-0.1693334 -0.66675,-0.2434167 -0.40217,-0.074083 -0.86783,-0.2328334 -0.46567,-0.1693333 -0.86784,-0.3915833 -0.40216,-0.22225 -0.67733,-0.6985001 -0.26458,-0.4868333 -0.26458,-1.1641667 0,-0.9313334 0.68791,-1.6192501 0.6985,-0.6985 1.89442,-0.6985 0.635,0 1.15358,0.1693333 0.52917,0.15875 0.73025,0.3280834 l 0.26459,0.2010833 q 0.32808,0.3069167 0.32808,0.5185834 0,0.2116666 -0.254,0.5820833 -0.35983,0.5291667 -0.74083,0.5291667 -0.22225,0 -0.55034,-0.2116666 -0.0318,-0.021167 -0.127,-0.1058334 -0.0847,-0.084667 -0.15875,-0.1375833 -0.22225,-0.1375834 -0.5715,-0.1375834 -0.33866,0 -0.5715,0.1693334 -0.22225,0.15875 -0.22225,0.4550833 0,0.28575 0.26459,0.4656667 0.27516,0.1799167 0.67733,0.2434167 0.40217,0.0635 0.87842,0.2010834 0.47625,0.127 0.87841,0.3175 0.40217,0.1905 0.66675,0.66675 0.27517,0.4656667 0.27517,1.1535837 0,0.687916 -0.27517,1.217083 -0.27516,0.518583 -0.71966,0.804334 -0.85725,0.560916 -1.83092,0.560916 -0.49742,0 -0.94192,-0.116416 -0.4445,-0.127 -0.71966,-0.306917 -0.56092,-0.338667 -0.78317,-0.656167 z" />
    <path
       id="path4839"
       style="font-style:normal;font-variant:normal;font-weight:normal;font-stretch:normal;font-family:'Fredoka One';-inkscape-font-specification:'Fredoka One';letter-spacing:1.35466671px;fill:#321241;fill-opacity:1;stroke-width:0.26458335"
       d="m 124.56938,5.0274981 q 0.24341,0 0.35983,0.021167 0.127,0.010583 0.27517,0.09525 0.15875,0.084667 0.22225,0.2857501 0.0635,0.2010833 0.0635,0.53975 0,0.3386667 -0.0635,0.53975 -0.0635,0.2010834 -0.22225,0.28575 -0.15875,0.074083 -0.28575,0.09525 -0.11642,0.010583 -0.37042,0.010583 h -3.2385 v 1.0689167 h 2.08492 q 0.254,0 0.37041,0.021167 0.127,0.010583 0.28575,0.09525 0.27517,0.15875 0.27517,0.8360834 0,0.7408333 -0.40217,0.8784167 -0.16933,0.052917 -0.53975,0.052917 h -2.07433 v 2.0002496 q 0,0.254 -0.0212,0.370417 -0.0106,0.116417 -0.0952,0.275167 -0.14816,0.28575 -0.8255,0.28575 -0.74083,0 -0.86783,-0.402167 -0.0635,-0.169333 -0.0635,-0.53975 V 5.9588315 q 0,-0.5397501 0.20108,-0.7302501 0.20109,-0.2010833 0.762,-0.2010833 z" />
    <path
       id="path4841"
       style="font-style:normal;font-variant:normal;font-weight:normal;font-stretch:normal;font-family:'Fredoka One';-inkscape-font-specification:'Fredoka One';letter-spacing:1.35466671px;fill:#321241;fill-opacity:1;stroke-width:0.26458335"
       d="m 133.46698,11.472748 q 0.15875,0.381 0.15875,0.550334 0,0.402167 -0.65616,0.677333 -0.33867,0.148167 -0.55034,0.148167 -0.20108,0 -0.33866,-0.09525 -0.127,-0.105833 -0.1905,-0.211667 -0.10584,-0.201083 -0.8255,-1.915583 l -0.32809,0.02117 h -1.3335 v 1.195917 q 0,0.243417 -0.0212,0.370417 -0.0106,0.116417 -0.0952,0.275167 -0.14817,0.28575 -0.8255,0.28575 -0.74084,0 -0.86784,-0.391584 -0.0635,-0.179917 -0.0635,-0.550333 V 5.9588315 q 0,-0.2434167 0.0106,-0.3598334 0.0212,-0.127 0.10583,-0.28575 0.14817,-0.28575 0.8255,-0.28575 h 2.286 q 0.93133,0 1.80975,0.6773333 0.42333,0.3280834 0.6985,0.8890001 0.27517,0.5609167 0.27517,1.2488334 0,1.1959167 -0.79375,1.9685001 0.23283,0.560917 0.71966,1.661583 z m -4.064,-2.6987497 h 1.35467 q 0.30692,0 0.61383,-0.2328334 0.30692,-0.2328333 0.30692,-0.6985 0,-0.4656667 -0.30692,-0.6985 -0.30691,-0.2434167 -0.635,-0.2434167 h -1.3335 z" />
    <path
       id="path4843"
       style="font-style:normal;font-variant:normal;font-weight:normal;font-stretch:normal;font-family:'Fredoka One';-inkscape-font-specification:'Fredoka One';letter-spacing:1.35466671px;fill:#321241;fill-opacity:1;stroke-width:0.26458335"
       d="m 135.561,5.9588315 q 0,-0.2434167 0.0106,-0.3598334 0.0212,-0.127 0.10583,-0.28575 0.14817,-0.28575 0.8255,-0.28575 0.74084,0 0.87842,0.3915833 0.0529,0.1799167 0.0529,0.5503334 v 5.8843332 q 0,0.254 -0.0212,0.370417 -0.0106,0.116417 -0.0953,0.275167 -0.14817,0.28575 -0.8255,0.28575 -0.74083,0 -0.86783,-0.402167 -0.0635,-0.169333 -0.0635,-0.53975 z" />
    <path
       id="path4845"
       style="font-style:normal;font-variant:normal;font-weight:normal;font-stretch:normal;font-family:'Fredoka One';-inkscape-font-specification:'Fredoka One';letter-spacing:1.35466671px;fill:#321241;fill-opacity:1;stroke-width:0.26458335"
       d="m 141.51743,10.911832 h 3.25967 q 0.24342,0 0.35983,0.02117 0.127,0.01058 0.28575,0.09525 0.28575,0.148167 0.28575,0.8255 0,0.740834 -0.39158,0.867834 -0.17992,0.0635 -0.55033,0.0635 h -4.19101 q -0.74083,0 -0.86783,-0.402167 -0.0635,-0.169333 -0.0635,-0.53975 V 5.9588315 q 0,-0.5397501 0.20108,-0.7302501 0.20109,-0.2010833 0.762,-0.2010833 h 4.16984 q 0.24342,0 0.35983,0.021167 0.127,0.010583 0.28575,0.09525 0.28575,0.1481667 0.28575,0.8255001 0,0.7408334 -0.39158,0.8678334 -0.17992,0.0635 -0.55033,0.0635 h -3.24909 v 1.0689167 h 2.0955 q 0.24342,0 0.35984,0.021167 0.127,0.010583 0.28575,0.09525 0.28575,0.1481667 0.28575,0.8255 0,0.7408334 -0.40217,0.8678334 -0.17992,0.0635 -0.55033,0.0635 h -2.07434 z" />
    <path
       id="path4847"
       style="font-style:normal;font-variant:normal;font-weight:normal;font-stretch:normal;font-family:'Fredoka One';-inkscape-font-specification:'Fredoka One';letter-spacing:1.35466671px;fill:#321241;fill-opacity:1;stroke-width:0.26458335"
       d="m 152.76404,5.3555814 q 0.10584,-0.1905 0.30692,-0.254 0.20108,-0.0635 0.49742,-0.0635 0.30691,0 0.48683,0.052917 0.1905,0.052917 0.27517,0.127 0.0953,0.074083 0.13758,0.22225 0.0635,0.1693333 0.0635,0.53975 v 5.8737499 q 0,0.254 -0.0212,0.370417 -0.0106,0.116417 -0.0952,0.275167 -0.14816,0.28575 -0.8255,0.28575 -0.41275,0 -0.5715,-0.0635 -0.15875,-0.0635 -0.26458,-0.201083 -2.38125,-3.1750007 -3.13267,-4.1486674 v 3.4819164 q 0,0.254 -0.0212,0.370417 -0.0106,0.116417 -0.0952,0.275167 -0.14817,0.28575 -0.8255,0.28575 -0.65617,0 -0.80434,-0.28575 -0.0847,-0.15875 -0.10583,-0.28575 -0.0106,-0.127 -0.0106,-0.370417 V 5.9376648 q 0,-0.4021667 0.0952,-0.5820834 0.10583,-0.1905 0.30691,-0.254 0.20109,-0.0635 0.51859,-0.0635 0.3175,0 0.49741,0.0635 0.1905,0.052917 0.26459,0.127 0.0423,0.03175 0.24341,0.2751667 2.23309,3.0374168 2.9845,4.0110836 V 5.9376648 q 0,-0.4021667 0.0952,-0.5820834 z" />
    <path
       id="path4849"
       style="font-style:normal;font-variant:normal;font-weight:normal;font-stretch:normal;font-family:'Fredoka One';-inkscape-font-specification:'Fredoka One';letter-spacing:1.35466671px;fill:#321241;fill-opacity:1;stroke-width:0.26458335"
       d="m 157.68215,5.0169147 1.95792,0.010583 q 1.53458,0 2.69875,1.11125 1.16417,1.1006668 1.16417,2.7199169 0,1.608667 -1.143,2.76225 -1.13242,1.153584 -2.75167,1.153584 h -1.93675 q -0.64558,0 -0.80433,-0.264584 -0.127,-0.22225 -0.127,-0.677333 V 5.9482481 q 0,-0.254 0.0106,-0.3704167 0.0212,-0.1164166 0.10583,-0.2751667 0.14817,-0.28575 0.8255,-0.28575 z m 1.95792,5.8843333 q 0.762,0 1.37583,-0.560916 0.61384,-0.5715003 0.61384,-1.4287504 0,-0.85725 -0.60325,-1.4287501 -0.59267,-0.5820833 -1.397,-0.5820833 h -1.016 v 4.0004998 z" />
    <path
       id="path4851"
       style="font-style:normal;font-variant:normal;font-weight:normal;font-stretch:normal;font-family:'Fredoka One';-inkscape-font-specification:'Fredoka One';letter-spacing:1.35466671px;fill:#321241;fill-opacity:1;stroke-width:0.26458335"
       d="m 165.21864,11.694998 q -0.27517,-0.338666 -0.27517,-0.60325 0,-0.275166 0.45508,-0.719666 0.26459,-0.254 0.56092,-0.254 0.29633,0 0.8255,0.529166 0.14817,0.179917 0.42333,0.34925 0.27517,0.15875 0.508,0.15875 0.98425,0 0.98425,-0.804333 0,-0.243417 -0.27516,-0.4021666 -0.26459,-0.1693334 -0.66675,-0.2434167 -0.40217,-0.074083 -0.86784,-0.2328334 -0.46566,-0.1693333 -0.86783,-0.3915833 -0.40217,-0.22225 -0.67733,-0.6985001 -0.26459,-0.4868333 -0.26459,-1.1641667 0,-0.9313334 0.68792,-1.6192501 0.6985,-0.6985 1.89442,-0.6985 0.635,0 1.15358,0.1693333 0.52917,0.15875 0.73025,0.3280834 l 0.26458,0.2010833 q 0.32809,0.3069167 0.32809,0.5185834 0,0.2116666 -0.254,0.5820833 -0.35984,0.5291667 -0.74084,0.5291667 -0.22225,0 -0.55033,-0.2116666 -0.0317,-0.021167 -0.127,-0.1058334 -0.0847,-0.084667 -0.15875,-0.1375833 -0.22225,-0.1375834 -0.5715,-0.1375834 -0.33867,0 -0.5715,0.1693334 -0.22225,0.15875 -0.22225,0.4550833 0,0.28575 0.26458,0.4656667 0.27517,0.1799167 0.67734,0.2434167 0.40216,0.0635 0.87841,0.2010834 0.47625,0.127 0.87842,0.3175 0.40217,0.1905 0.66675,0.66675 0.27517,0.4656667 0.27517,1.1535837 0,0.687916 -0.27517,1.217083 -0.27517,0.518583 -0.71967,0.804334 -0.85725,0.560916 -1.83091,0.560916 -0.49742,0 -0.94192,-0.116416 -0.4445,-0.127 -0.71967,-0.306917 -0.56091,-0.338667 -0.78316,-0.656167 z" />
    <path
       id="path4853"
       style="font-style:normal;font-variant:normal;font-weight:normal;font-stretch:normal;font-family:'Fredoka One';-inkscape-font-specification:'Fredoka One';letter-spacing:1.35466671px;fill:#321241;fill-opacity:1;stroke-width:0.26458335"
       d="m 177.18723,5.0169147 h 5.88433 q 0.33867,0 0.49742,0.084667 0.15875,0.074083 0.21167,0.2434167 0.0529,0.1693333 0.0529,0.4445 0,0.2751667 -0.0529,0.4445 -0.0529,0.15875 -0.17992,0.22225 -0.1905,0.09525 -0.53975,0.09525 h -2.02142 v 5.3234168 q 0,0.243417 -0.0212,0.359833 -0.0106,0.116417 -0.0953,0.275167 -0.0741,0.148167 -0.27517,0.211667 -0.20108,0.0635 -0.52917,0.0635 -0.32808,0 -0.52916,-0.0635 -0.1905,-0.0635 -0.27517,-0.211667 -0.0741,-0.15875 -0.0952,-0.275167 -0.0106,-0.127 -0.0106,-0.370416 V 6.5514982 h -2.032 q -0.33867,0 -0.49742,-0.074083 -0.15875,-0.084667 -0.21167,-0.254 -0.0529,-0.1693333 -0.0529,-0.4445 0,-0.2751667 0.0529,-0.4339167 0.0529,-0.1693334 0.17992,-0.2328334 0.1905,-0.09525 0.53975,-0.09525 z" />
    <path
       id="path4855"
       style="font-style:normal;font-variant:normal;font-weight:normal;font-stretch:normal;font-family:'Fredoka One';-inkscape-font-specification:'Fredoka One';letter-spacing:1.35466671px;fill:#321241;fill-opacity:1;stroke-width:0.26458335"
       d="m 188.76458,4.9322481 q 1.56633,0 2.71991,1.1324167 1.15359,1.1324167 1.15359,2.8151668 0,1.6721664 -1.10067,2.8575004 -1.10067,1.17475 -2.70933,1.17475 -1.60867,0 -2.74109,-1.164167 -1.12183,-1.164167 -1.12183,-2.7728334 0,-0.8784167 0.3175,-1.6404167 0.3175,-0.7725834 0.84667,-1.2911668 0.52916,-0.5185833 1.21708,-0.8149167 0.68792,-0.2963333 1.41817,-0.2963333 z m -1.92617,3.9899169 q 0,0.9419167 0.60325,1.534583 0.61383,0.582084 1.36525,0.582084 0.75142,0 1.35467,-0.5715 0.60325,-0.5715003 0.60325,-1.5345837 0,-0.9630834 -0.61384,-1.5451668 -0.60325,-0.5820833 -1.35466,-0.5820833 -0.75142,0 -1.35467,0.5926667 -0.60325,0.5820833 -0.60325,1.5240001 z" />
    <path
       id="path4857"
       style="font-style:normal;font-variant:normal;font-weight:normal;font-stretch:normal;font-family:'Fredoka One';-inkscape-font-specification:'Fredoka One';letter-spacing:1.35466671px;fill:#321241;fill-opacity:1;stroke-width:0.26458335"
       d="m 198.32546,4.9322481 q 1.56633,0 2.71992,1.1324167 1.15358,1.1324167 1.15358,2.8151668 0,1.6721664 -1.10067,2.8575004 -1.10066,1.17475 -2.70933,1.17475 -1.60867,0 -2.74108,-1.164167 -1.12184,-1.164167 -1.12184,-2.7728334 0,-0.8784167 0.3175,-1.6404167 0.3175,-0.7725834 0.84667,-1.2911668 0.52917,-0.5185833 1.21708,-0.8149167 0.68792,-0.2963333 1.41817,-0.2963333 z m -1.92617,3.9899169 q 0,0.9419167 0.60325,1.534583 0.61384,0.582084 1.36525,0.582084 0.75142,0 1.35467,-0.5715 0.60325,-0.5715003 0.60325,-1.5345837 0,-0.9630834 -0.61383,-1.5451668 -0.60325,-0.5820833 -1.35467,-0.5820833 -0.75142,0 -1.35467,0.5926667 -0.60325,0.5820833 -0.60325,1.5240001 z" />
  </g>
</svg>
