<?xml version="1.0" encoding="UTF-8" standalone="no"?>
<svg
   xmlns:dc="http://purl.org/dc/elements/1.1/"
   xmlns:cc="http://creativecommons.org/ns#"
   xmlns:rdf="http://www.w3.org/1999/02/22-rdf-syntax-ns#"
   xmlns:svg="http://www.w3.org/2000/svg"
   xmlns="http://www.w3.org/2000/svg"
   id="svg8"
   version="1.1"
   viewBox="0 0 211.41838 17.562462"
   height="66.377808"
   width="799.06158">
  <defs
     id="defs2" />
  <metadata
     id="metadata5">
    <rdf:RDF>
      <cc:Work
         rdf:about="">
        <dc:format>image/svg+xml</dc:format>
        <dc:type
           rdf:resource="http://purl.org/dc/dcmitype/StillImage" />
        <dc:title></dc:title>
      </cc:Work>
    </rdf:RDF>
  </metadata>
  <g
     transform="translate(-61.148293,-151.85711)"
     id="layer1">
    <g
       id="text4531"
       style="font-style:normal;font-variant:normal;font-weight:normal;font-stretch:normal;font-size:10.58333302px;line-height:1.25;font-family:Gadugi;-inkscape-font-specification:Gadugi;letter-spacing:1.33350003px;word-spacing:0px;fill:#54455c;fill-opacity:1;stroke:none;stroke-width:0.26458332"
       aria-label="ABC CERTIFIED">
      <path
         id="path4635"
         style="font-style:normal;font-variant:normal;font-weight:normal;font-stretch:normal;font-family:'Fredoka One';-inkscape-font-specification:'Fredoka One';letter-spacing:1.35995829px;fill:#54455c;fill-opacity:1;stroke-width:0.26458332"
         d="m 70.113844,158.02888 2.857499,5.9055 q 0.179917,0.35983 0.179917,0.53975 0,0.381 -0.613833,0.68792 -0.359833,0.17991 -0.5715,0.17991 -0.201083,0 -0.338667,-0.0952 -0.127,-0.0953 -0.1905,-0.20108 -0.05292,-0.10583 -0.15875,-0.3175 l -0.550333,-1.143 h -2.931583 l -0.550334,1.143 q -0.105833,0.21167 -0.169333,0.30692 -0.05292,0.0952 -0.1905,0.20108 -0.127,0.0952 -0.338667,0.0952 -0.201083,0 -0.560916,-0.17992 -0.613834,-0.29633 -0.613834,-0.67733 0,-0.17992 0.179917,-0.53975 l 2.8575,-5.91608 q 0.116417,-0.24342 0.34925,-0.39159 0.243417,-0.14816 0.508,-0.14816 0.5715,0 0.846667,0.55033 z m -0.85725,2.54 -0.6985,1.44992 h 1.407583 z" />
      <path
         id="path4637"
         style="font-style:normal;font-variant:normal;font-weight:normal;font-stretch:normal;font-family:'Fredoka One';-inkscape-font-specification:'Fredoka One';letter-spacing:1.35995829px;fill:#54455c;fill-opacity:1;stroke-width:0.26458332"
         d="m 80.624416,161.07688 q 0.624417,0.74083 0.624417,1.66158 -0.02117,1.05834 -0.73025,1.778 -0.6985,0.70909 -1.703917,0.70909 H 76.03125 q -0.740833,0 -0.867833,-0.40217 -0.0635,-0.17992 -0.0635,-0.55033 v -5.87375 q 0,-0.254 0.01058,-0.37042 0.02117,-0.11642 0.105833,-0.27517 0.148167,-0.28575 0.8255,-0.28575 h 2.667 q 0.973667,0 1.629833,0.67734 0.687917,0.68791 0.687917,1.651 0,0.6985 -0.402167,1.28058 z m -1.248833,1.55575 q 0,-0.254 -0.0635,-0.40217 -0.05292,-0.14816 -0.1905,-0.21166 -0.211667,-0.0847 -0.592666,-0.0847 -0.381,0 -0.5715,-0.14817 -0.1905,-0.14816 -0.1905,-0.60325 0,-0.46566 0.1905,-0.61383 0.201083,-0.14817 0.656166,-0.14817 0.423333,0 0.508,-0.22225 0.03175,-0.11641 0.03175,-0.381 0,-0.26458 -0.179917,-0.37041 -0.169333,-0.10584 -0.518583,-0.10584 h -1.481666 v 4.01109 h 1.735666 q 0.66675,0 0.66675,-0.71967 z" />
      <path
         id="path4639"
         style="font-style:normal;font-variant:normal;font-weight:normal;font-stretch:normal;font-family:'Fredoka One';-inkscape-font-specification:'Fredoka One';letter-spacing:1.35995829px;fill:#54455c;fill-opacity:1;stroke-width:0.26458332"
         d="m 88.149,163.20413 0.1905,-0.13758 q 0.359833,-0.21167 0.508,-0.21167 0.328083,0 0.709083,0.59267 0.232833,0.37041 0.232833,0.59266 0,0.22225 -0.148166,0.37042 -0.137584,0.14817 -0.328084,0.26458 -0.1905,0.11642 -0.370416,0.22225 -0.169334,0.10584 -0.709084,0.27517 -0.539749,0.16933 -1.047749,0.16933 -0.497417,0 -1.016,-0.127 -0.508,-0.13758 -1.058334,-0.4445 -0.53975,-0.3175 -0.973666,-0.762 -0.433917,-0.45508 -0.719667,-1.15358 -0.275167,-0.70908 -0.275167,-1.53458 0,-0.8255 0.275167,-1.49225 0.275167,-0.67734 0.6985,-1.11125 0.433917,-0.4445 0.98425,-0.74084 1.037167,-0.5715 2.084917,-0.5715 0.497416,0 1.005416,0.15875 0.518583,0.14817 0.783167,0.30692 l 0.254,0.14817 q 0.1905,0.11641 0.296333,0.1905 0.275167,0.22225 0.275167,0.508 0,0.27516 -0.22225,0.58208 -0.41275,0.5715 -0.740834,0.5715 -0.1905,0 -0.53975,-0.23283 -0.444499,-0.35984 -1.185333,-0.35984 -0.687916,0 -1.354666,0.47625 -0.3175,0.23284 -0.529167,0.65617 -0.211667,0.42333 -0.211667,0.96308 0,0.52917 0.211667,0.9525 0.211667,0.42334 0.53975,0.66675 0.645583,0.46567 1.344083,0.46567 0.328084,0 0.613834,-0.0847 0.296333,-0.0847 0.423333,-0.16933 z" />
      <path
         id="path4641"
         style="font-style:normal;font-variant:normal;font-weight:normal;font-stretch:normal;font-family:'Fredoka One';-inkscape-font-specification:'Fredoka One';letter-spacing:1.35995829px;fill:#54455c;fill-opacity:1;stroke-width:0.26458332"
         d="m 100.74945,163.20413 0.1905,-0.13758 q 0.35983,-0.21167 0.508,-0.21167 0.32808,0 0.70908,0.59267 0.23284,0.37041 0.23284,0.59266 0,0.22225 -0.14817,0.37042 -0.13758,0.14817 -0.32808,0.26458 -0.1905,0.11642 -0.37042,0.22225 -0.16933,0.10584 -0.70908,0.27517 -0.53975,0.16933 -1.047753,0.16933 -0.497417,0 -1.016,-0.127 -0.508,-0.13758 -1.058333,-0.4445 -0.53975,-0.3175 -0.973667,-0.762 -0.433917,-0.45508 -0.719667,-1.15358 -0.275166,-0.70908 -0.275166,-1.53458 0,-0.8255 0.275166,-1.49225 0.275167,-0.67734 0.6985,-1.11125 0.433917,-0.4445 0.98425,-0.74084 1.037167,-0.5715 2.084917,-0.5715 0.497413,0 1.005413,0.15875 0.51859,0.14817 0.78317,0.30692 l 0.254,0.14817 q 0.1905,0.11641 0.29633,0.1905 0.27517,0.22225 0.27517,0.508 0,0.27516 -0.22225,0.58208 -0.41275,0.5715 -0.74083,0.5715 -0.1905,0 -0.53975,-0.23283 -0.4445,-0.35984 -1.185336,-0.35984 -0.687917,0 -1.354667,0.47625 -0.3175,0.23284 -0.529167,0.65617 -0.211666,0.42333 -0.211666,0.96308 0,0.52917 0.211666,0.9525 0.211667,0.42334 0.53975,0.66675 0.645584,0.46567 1.344084,0.46567 0.328086,0 0.613836,-0.0847 0.29633,-0.0847 0.42333,-0.16933 z" />
      <path
         id="path4643"
         style="font-style:normal;font-variant:normal;font-weight:normal;font-stretch:normal;font-family:'Fredoka One';-inkscape-font-specification:'Fredoka One';letter-spacing:1.35995829px;fill:#54455c;fill-opacity:1;stroke-width:0.26458332"
         d="m 106.32885,163.36288 h 3.25967 q 0.24342,0 0.35983,0.0212 0.127,0.0106 0.28575,0.0952 0.28575,0.14816 0.28575,0.8255 0,0.74083 -0.39158,0.86783 -0.17992,0.0635 -0.55033,0.0635 h -4.191 q -0.74084,0 -0.86784,-0.40217 -0.0635,-0.16933 -0.0635,-0.53975 v -5.88433 q 0,-0.53975 0.20109,-0.73025 0.20108,-0.20108 0.762,-0.20108 h 4.16983 q 0.24342,0 0.35983,0.0212 0.127,0.0106 0.28575,0.0952 0.28575,0.14817 0.28575,0.8255 0,0.74084 -0.39158,0.86784 -0.17992,0.0635 -0.55033,0.0635 h -3.24909 v 1.06891 h 2.0955 q 0.24342,0 0.35984,0.0212 0.127,0.0106 0.28575,0.0952 0.28575,0.14817 0.28575,0.8255 0,0.74083 -0.40217,0.86783 -0.17992,0.0635 -0.55033,0.0635 h -2.07434 z" />
      <path
         id="path4645"
         style="font-style:normal;font-variant:normal;font-weight:normal;font-stretch:normal;font-family:'Fredoka One';-inkscape-font-specification:'Fredoka One';letter-spacing:1.35995829px;fill:#54455c;fill-opacity:1;stroke-width:0.26458332"
         d="m 118.51209,163.9238 q 0.15875,0.381 0.15875,0.55033 0,0.40217 -0.65617,0.67733 -0.33867,0.14817 -0.55033,0.14817 -0.20109,0 -0.33867,-0.0953 -0.127,-0.10583 -0.1905,-0.21167 -0.10583,-0.20108 -0.8255,-1.91558 l -0.32808,0.0212 h -1.3335 v 1.19591 q 0,0.24342 -0.0212,0.37042 -0.0106,0.11642 -0.0952,0.27517 -0.14817,0.28575 -0.8255,0.28575 -0.74083,0 -0.86783,-0.39159 -0.0635,-0.17991 -0.0635,-0.55033 v -5.87375 q 0,-0.24342 0.0106,-0.35983 0.0212,-0.127 0.10583,-0.28575 0.14817,-0.28575 0.8255,-0.28575 h 2.286 q 0.93134,0 1.80975,0.67733 0.42334,0.32808 0.6985,0.889 0.27517,0.56092 0.27517,1.24883 0,1.19592 -0.79375,1.9685 0.23283,0.56092 0.71967,1.66159 z m -4.064,-2.69875 h 1.35466 q 0.30692,0 0.61384,-0.23284 0.30691,-0.23283 0.30691,-0.6985 0,-0.46566 -0.30691,-0.6985 -0.30692,-0.24341 -0.635,-0.24341 h -1.3335 z" />
      <path
         id="path4647"
         style="font-style:normal;font-variant:normal;font-weight:normal;font-stretch:normal;font-family:'Fredoka One';-inkscape-font-specification:'Fredoka One';letter-spacing:1.35995829px;fill:#54455c;fill-opacity:1;stroke-width:0.26458332"
         d="m 120.70598,157.46796 h 5.88433 q 0.33867,0 0.49742,0.0847 0.15875,0.0741 0.21167,0.24342 0.0529,0.16933 0.0529,0.4445 0,0.27516 -0.0529,0.4445 -0.0529,0.15875 -0.17992,0.22225 -0.1905,0.0953 -0.53975,0.0953 h -2.02142 v 5.32341 q 0,0.24342 -0.0212,0.35984 -0.0106,0.11641 -0.0952,0.27516 -0.0741,0.14817 -0.27517,0.21167 -0.20108,0.0635 -0.52917,0.0635 -0.32808,0 -0.52916,-0.0635 -0.1905,-0.0635 -0.27517,-0.21167 -0.0741,-0.15875 -0.0953,-0.27516 -0.0106,-0.127 -0.0106,-0.37042 v -5.31283 h -2.032 q -0.33867,0 -0.49742,-0.0741 -0.15875,-0.0847 -0.21167,-0.254 -0.0529,-0.16933 -0.0529,-0.4445 0,-0.27516 0.0529,-0.43391 0.0529,-0.16934 0.17992,-0.23284 0.1905,-0.0952 0.53975,-0.0952 z" />
      <path
         id="path4649"
         style="font-style:normal;font-variant:normal;font-weight:normal;font-stretch:normal;font-family:'Fredoka One';-inkscape-font-specification:'Fredoka One';letter-spacing:1.35995829px;fill:#54455c;fill-opacity:1;stroke-width:0.26458332"
         d="m 129.28873,158.40988 q 0,-0.24342 0.0106,-0.35983 0.0212,-0.127 0.10583,-0.28575 0.14817,-0.28575 0.8255,-0.28575 0.74083,0 0.87842,0.39158 0.0529,0.17992 0.0529,0.55033 v 5.88434 q 0,0.254 -0.0212,0.37041 -0.0106,0.11642 -0.0952,0.27517 -0.14817,0.28575 -0.8255,0.28575 -0.74084,0 -0.86784,-0.40217 -0.0635,-0.16933 -0.0635,-0.53975 z" />
      <path
         id="path4651"
         style="font-style:normal;font-variant:normal;font-weight:normal;font-stretch:normal;font-family:'Fredoka One';-inkscape-font-specification:'Fredoka One';letter-spacing:1.35995829px;fill:#54455c;fill-opacity:1;stroke-width:0.26458332"
         d="m 138.51012,157.47855 q 0.24342,0 0.35984,0.0212 0.127,0.0106 0.27516,0.0952 0.15875,0.0847 0.22225,0.28575 0.0635,0.20109 0.0635,0.53975 0,0.33867 -0.0635,0.53975 -0.0635,0.20109 -0.22225,0.28575 -0.15875,0.0741 -0.28575,0.0952 -0.11641,0.0106 -0.37041,0.0106 h -3.2385 v 1.06891 h 2.08491 q 0.254,0 0.37042,0.0212 0.127,0.0106 0.28575,0.0952 0.27517,0.15875 0.27517,0.83608 0,0.74084 -0.40217,0.87842 -0.16933,0.0529 -0.53975,0.0529 h -2.07433 v 2.00025 q 0,0.254 -0.0212,0.37041 -0.0106,0.11642 -0.0952,0.27517 -0.14817,0.28575 -0.8255,0.28575 -0.74083,0 -0.86783,-0.40217 -0.0635,-0.16933 -0.0635,-0.53975 v -5.88433 q 0,-0.53975 0.20108,-0.73025 0.20108,-0.20108 0.762,-0.20108 z" />
      <path
         id="path4653"
         style="font-style:normal;font-variant:normal;font-weight:normal;font-stretch:normal;font-family:'Fredoka One';-inkscape-font-specification:'Fredoka One';letter-spacing:1.35995829px;fill:#54455c;fill-opacity:1;stroke-width:0.26458332"
         d="m 141.47577,158.40988 q 0,-0.24342 0.0106,-0.35983 0.0212,-0.127 0.10584,-0.28575 0.14816,-0.28575 0.8255,-0.28575 0.74083,0 0.87841,0.39158 0.0529,0.17992 0.0529,0.55033 v 5.88434 q 0,0.254 -0.0212,0.37041 -0.0106,0.11642 -0.0953,0.27517 -0.14816,0.28575 -0.8255,0.28575 -0.74083,0 -0.86783,-0.40217 -0.0635,-0.16933 -0.0635,-0.53975 z" />
      <path
         id="path4655"
         style="font-style:normal;font-variant:normal;font-weight:normal;font-stretch:normal;font-family:'Fredoka One';-inkscape-font-specification:'Fredoka One';letter-spacing:1.35995829px;fill:#54455c;fill-opacity:1;stroke-width:0.26458332"
         d="m 147.43749,163.36288 h 3.25967 q 0.24341,0 0.35983,0.0212 0.127,0.0106 0.28575,0.0952 0.28575,0.14816 0.28575,0.8255 0,0.74083 -0.39158,0.86783 -0.17992,0.0635 -0.55034,0.0635 h -4.191 q -0.74083,0 -0.86783,-0.40217 -0.0635,-0.16933 -0.0635,-0.53975 v -5.88433 q 0,-0.53975 0.20108,-0.73025 0.20109,-0.20108 0.762,-0.20108 h 4.16984 q 0.24341,0 0.35983,0.0212 0.127,0.0106 0.28575,0.0952 0.28575,0.14817 0.28575,0.8255 0,0.74084 -0.39158,0.86784 -0.17992,0.0635 -0.55034,0.0635 h -3.24908 v 1.06891 h 2.0955 q 0.24342,0 0.35983,0.0212 0.127,0.0106 0.28575,0.0952 0.28575,0.14817 0.28575,0.8255 0,0.74083 -0.40216,0.86783 -0.17992,0.0635 -0.55034,0.0635 h -2.07433 z" />
      <path
         id="path4657"
         style="font-style:normal;font-variant:normal;font-weight:normal;font-stretch:normal;font-family:'Fredoka One';-inkscape-font-specification:'Fredoka One';letter-spacing:1.35995829px;fill:#54455c;fill-opacity:1;stroke-width:0.26458332"
         d="m 154.6254,157.46796 1.95791,0.0106 q 1.53459,0 2.69875,1.11125 1.16417,1.10066 1.16417,2.71991 0,1.60867 -1.143,2.76225 -1.13242,1.15359 -2.75167,1.15359 h -1.93675 q -0.64558,0 -0.80433,-0.26459 -0.127,-0.22225 -0.127,-0.67733 v -5.88433 q 0,-0.254 0.0106,-0.37042 0.0212,-0.11642 0.10584,-0.27517 0.14816,-0.28575 0.8255,-0.28575 z m 1.95791,5.88434 q 0.762,0 1.37584,-0.56092 0.61383,-0.5715 0.61383,-1.42875 0,-0.85725 -0.60325,-1.42875 -0.59267,-0.58208 -1.397,-0.58208 h -1.016 v 4.0005 z" />
    </g>
    <g
       id="text4531-7"
       style="font-style:normal;font-variant:normal;font-weight:normal;font-stretch:normal;font-size:10.58333302px;line-height:1.25;font-family:Gadugi;-inkscape-font-specification:Gadugi;letter-spacing:1.33350003px;word-spacing:0px;fill:#321241;fill-opacity:1;stroke:none;stroke-width:0.26458332"
       aria-label="DOG TRAINERS">
      <path
         id="path4612"
         style="font-style:normal;font-variant:normal;font-weight:normal;font-stretch:normal;font-family:'Fredoka One';-inkscape-font-specification:'Fredoka One';letter-spacing:1.35995829px;fill:#321241;fill-opacity:1;stroke-width:0.26458332"
         d="m 167.21259,157.58909 1.95791,0.0106 q 1.53459,0 2.69875,1.11125 1.16417,1.10067 1.16417,2.71992 0,1.60866 -1.143,2.76225 -1.13242,1.15358 -2.75167,1.15358 H 167.202 q -0.64558,0 -0.80433,-0.26458 -0.127,-0.22225 -0.127,-0.67734 v -5.88433 q 0,-0.254 0.0106,-0.37042 0.0212,-0.11641 0.10584,-0.27516 0.14816,-0.28575 0.8255,-0.28575 z m 1.95791,5.88433 q 0.762,0 1.37584,-0.56092 0.61383,-0.5715 0.61383,-1.42875 0,-0.85725 -0.60325,-1.42875 -0.59267,-0.58208 -1.397,-0.58208 h -1.016 v 4.0005 z" />
      <path
         id="path4614"
         style="font-style:normal;font-variant:normal;font-weight:normal;font-stretch:normal;font-family:'Fredoka One';-inkscape-font-specification:'Fredoka One';letter-spacing:1.35995829px;fill:#321241;fill-opacity:1;stroke-width:0.26458332"
         d="m 178.7127,157.50442 q 1.56633,0 2.71992,1.13242 1.15358,1.13241 1.15358,2.81516 0,1.67217 -1.10067,2.8575 -1.10066,1.17475 -2.70933,1.17475 -1.60867,0 -2.74108,-1.16416 -1.12184,-1.16417 -1.12184,-2.77284 0,-0.87841 0.3175,-1.64041 0.3175,-0.77259 0.84667,-1.29117 0.52917,-0.51858 1.21708,-0.81492 0.68792,-0.29633 1.41817,-0.29633 z m -1.92617,3.98992 q 0,0.94191 0.60325,1.53458 0.61384,0.58208 1.36525,0.58208 0.75142,0 1.35467,-0.5715 0.60325,-0.5715 0.60325,-1.53458 0,-0.96308 -0.61383,-1.54517 -0.60325,-0.58208 -1.35467,-0.58208 -0.75142,0 -1.35467,0.59267 -0.60325,0.58208 -0.60325,1.524 z" />
      <path
         id="path4616"
         style="font-style:normal;font-variant:normal;font-weight:normal;font-stretch:normal;font-family:'Fredoka One';-inkscape-font-specification:'Fredoka One';letter-spacing:1.35995829px;fill:#321241;fill-opacity:1;stroke-width:0.26458332"
         d="m 188.68104,160.67942 h 1.86267 q 0.5715,0.0212 0.6985,0.29633 0.10583,0.20109 0.10583,0.59267 v 2.32833 q 0,0.33867 -0.29633,0.64559 -0.889,0.92075 -2.667,0.92075 -1.57692,0 -2.74108,-1.18534 -1.16417,-1.19591 -1.16417,-2.87866 0,-1.68275 1.18533,-2.80459 1.18534,-1.13241 2.794,-1.13241 1.24884,0 2.36009,0.8255 0.28575,0.21166 0.28575,0.47625 0,0.254 -0.24342,0.59266 -0.41275,0.56092 -0.75142,0.56092 -0.20108,0 -0.64558,-0.28575 -0.4445,-0.29633 -1.05833,-0.29633 -0.80434,0 -1.42875,0.5715 -0.62442,0.56091 -0.62442,1.48166 0,0.91017 0.635,1.55575 0.635,0.635 1.43933,0.635 0.58209,0 1.04775,-0.1905 v -1.15358 h -0.83608 q -0.32808,0 -0.46567,-0.0847 -0.13758,-0.0847 -0.17991,-0.24341 -0.0423,-0.16934 -0.0423,-0.4445 0,-0.28575 0.0423,-0.45509 0.0529,-0.16933 0.17991,-0.23283 0.1905,-0.0952 0.508,-0.0952 z" />
      <path
         id="path4618"
         style="font-style:normal;font-variant:normal;font-weight:normal;font-stretch:normal;font-family:'Fredoka One';-inkscape-font-specification:'Fredoka One';letter-spacing:1.35995829px;fill:#321241;fill-opacity:1;stroke-width:0.26458332"
         d="m 198.11873,157.58909 h 5.88433 q 0.33867,0 0.49742,0.0847 0.15875,0.0741 0.21167,0.24342 0.0529,0.16933 0.0529,0.4445 0,0.27517 -0.0529,0.4445 -0.0529,0.15875 -0.17992,0.22225 -0.1905,0.0952 -0.53975,0.0952 h -2.02142 v 5.32342 q 0,0.24341 -0.0212,0.35983 -0.0106,0.11642 -0.0953,0.27517 -0.0741,0.14816 -0.27517,0.21166 -0.20108,0.0635 -0.52917,0.0635 -0.32808,0 -0.52916,-0.0635 -0.1905,-0.0635 -0.27517,-0.21166 -0.0741,-0.15875 -0.0952,-0.27517 -0.0106,-0.127 -0.0106,-0.37042 v -5.31283 h -2.032 q -0.33867,0 -0.49742,-0.0741 -0.15875,-0.0847 -0.21167,-0.254 -0.0529,-0.16934 -0.0529,-0.4445 0,-0.27517 0.0529,-0.43392 0.0529,-0.16933 0.17992,-0.23283 0.1905,-0.0952 0.53975,-0.0952 z" />
      <path
         id="path4620"
         style="font-style:normal;font-variant:normal;font-weight:normal;font-stretch:normal;font-family:'Fredoka One';-inkscape-font-specification:'Fredoka One';letter-spacing:1.35995829px;fill:#321241;fill-opacity:1;stroke-width:0.26458332"
         d="m 212.63873,164.04492 q 0.15875,0.381 0.15875,0.55033 0,0.40217 -0.65616,0.67734 -0.33867,0.14816 -0.55034,0.14816 -0.20108,0 -0.33866,-0.0952 -0.127,-0.10583 -0.1905,-0.21166 -0.10584,-0.20109 -0.8255,-1.91559 l -0.32809,0.0212 h -1.3335 v 1.19592 q 0,0.24341 -0.0212,0.37041 -0.0106,0.11642 -0.0953,0.27517 -0.14817,0.28575 -0.8255,0.28575 -0.74084,0 -0.86784,-0.39158 -0.0635,-0.17992 -0.0635,-0.55034 V 158.531 q 0,-0.24341 0.0106,-0.35983 0.0212,-0.127 0.10583,-0.28575 0.14817,-0.28575 0.8255,-0.28575 h 2.286 q 0.93133,0 1.80975,0.67733 0.42333,0.32809 0.6985,0.889 0.27517,0.56092 0.27517,1.24884 0,1.19591 -0.79375,1.9685 0.23283,0.56091 0.71966,1.66158 z m -4.064,-2.69875 h 1.35467 q 0.30692,0 0.61383,-0.23283 0.30692,-0.23284 0.30692,-0.6985 0,-0.46567 -0.30692,-0.6985 -0.30691,-0.24342 -0.635,-0.24342 h -1.3335 z" />
      <path
         id="path4622"
         style="font-style:normal;font-variant:normal;font-weight:normal;font-stretch:normal;font-family:'Fredoka One';-inkscape-font-specification:'Fredoka One';letter-spacing:1.35995829px;fill:#321241;fill-opacity:1;stroke-width:0.26458332"
         d="m 219.21478,158.15 2.8575,5.9055 q 0.17992,0.35984 0.17992,0.53975 0,0.381 -0.61383,0.68792 -0.35984,0.17992 -0.5715,0.17992 -0.20109,0 -0.33867,-0.0952 -0.127,-0.0952 -0.1905,-0.20109 -0.0529,-0.10583 -0.15875,-0.3175 l -0.55033,-1.143 h -2.93159 l -0.55033,1.143 q -0.10583,0.21167 -0.16933,0.30692 -0.0529,0.0952 -0.1905,0.20108 -0.127,0.0952 -0.33867,0.0952 -0.20108,0 -0.56092,-0.17991 -0.61383,-0.29634 -0.61383,-0.67734 0,-0.17991 0.17992,-0.53975 l 2.8575,-5.91608 q 0.11641,-0.24342 0.34925,-0.39158 0.24341,-0.14817 0.508,-0.14817 0.5715,0 0.84666,0.55033 z m -0.85725,2.54 -0.6985,1.44992 h 1.40759 z" />
      <path
         id="path4624"
         style="font-style:normal;font-variant:normal;font-weight:normal;font-stretch:normal;font-family:'Fredoka One';-inkscape-font-specification:'Fredoka One';letter-spacing:1.35995829px;fill:#321241;fill-opacity:1;stroke-width:0.26458332"
         d="m 224.20086,158.531 q 0,-0.24341 0.0106,-0.35983 0.0212,-0.127 0.10583,-0.28575 0.14817,-0.28575 0.8255,-0.28575 0.74084,0 0.87842,0.39158 0.0529,0.17992 0.0529,0.55034 v 5.88433 q 0,0.254 -0.0212,0.37042 -0.0106,0.11641 -0.0952,0.27516 -0.14817,0.28575 -0.8255,0.28575 -0.74083,0 -0.86783,-0.40216 -0.0635,-0.16934 -0.0635,-0.53975 z" />
      <path
         id="path4626"
         style="font-style:normal;font-variant:normal;font-weight:normal;font-stretch:normal;font-family:'Fredoka One';-inkscape-font-specification:'Fredoka One';letter-spacing:1.35995829px;fill:#321241;fill-opacity:1;stroke-width:0.26458332"
         d="m 233.29525,157.92775 q 0.10583,-0.1905 0.30691,-0.254 0.20109,-0.0635 0.49742,-0.0635 0.30692,0 0.48683,0.0529 0.1905,0.0529 0.27517,0.127 0.0952,0.0741 0.13758,0.22225 0.0635,0.16933 0.0635,0.53975 v 5.87375 q 0,0.254 -0.0212,0.37042 -0.0106,0.11641 -0.0953,0.27516 -0.14817,0.28575 -0.8255,0.28575 -0.41275,0 -0.5715,-0.0635 -0.15875,-0.0635 -0.26459,-0.20108 -2.38125,-3.175 -3.13266,-4.14867 v 3.48192 q 0,0.254 -0.0212,0.37042 -0.0106,0.11641 -0.0952,0.27516 -0.14817,0.28575 -0.8255,0.28575 -0.65617,0 -0.80433,-0.28575 -0.0847,-0.15875 -0.10584,-0.28575 -0.0106,-0.127 -0.0106,-0.37041 v -5.9055 q 0,-0.40217 0.0952,-0.58209 0.10583,-0.1905 0.30692,-0.254 0.20108,-0.0635 0.51858,-0.0635 0.3175,0 0.49742,0.0635 0.1905,0.0529 0.26458,0.127 0.0423,0.0318 0.24342,0.27517 2.23308,3.03742 2.9845,4.01108 v -3.57716 q 0,-0.40217 0.0953,-0.58209 z" />
      <path
         id="path4628"
         style="font-style:normal;font-variant:normal;font-weight:normal;font-stretch:normal;font-family:'Fredoka One';-inkscape-font-specification:'Fredoka One';letter-spacing:1.35995829px;fill:#321241;fill-opacity:1;stroke-width:0.26458332"
         d="m 239.14998,163.484 h 3.25967 q 0.24342,0 0.35983,0.0212 0.127,0.0106 0.28575,0.0953 0.28575,0.14817 0.28575,0.8255 0,0.74083 -0.39158,0.86783 -0.17992,0.0635 -0.55033,0.0635 h -4.191 q -0.74084,0 -0.86784,-0.40216 -0.0635,-0.16934 -0.0635,-0.53975 V 158.531 q 0,-0.53975 0.20109,-0.73025 0.20108,-0.20108 0.762,-0.20108 h 4.16983 q 0.24342,0 0.35983,0.0212 0.127,0.0106 0.28575,0.0953 0.28575,0.14816 0.28575,0.8255 0,0.74083 -0.39158,0.86783 -0.17992,0.0635 -0.55033,0.0635 h -3.24909 v 1.06892 h 2.0955 q 0.24342,0 0.35984,0.0212 0.127,0.0106 0.28575,0.0953 0.28575,0.14817 0.28575,0.8255 0,0.74084 -0.40217,0.86784 -0.17992,0.0635 -0.55033,0.0635 h -2.07434 z" />
      <path
         id="path4630"
         style="font-style:normal;font-variant:normal;font-weight:normal;font-stretch:normal;font-family:'Fredoka One';-inkscape-font-specification:'Fredoka One';letter-spacing:1.35995829px;fill:#321241;fill-opacity:1;stroke-width:0.26458332"
         d="m 251.33322,164.04492 q 0.15875,0.381 0.15875,0.55033 0,0.40217 -0.65617,0.67734 -0.33867,0.14816 -0.55033,0.14816 -0.20109,0 -0.33867,-0.0952 -0.127,-0.10583 -0.1905,-0.21166 -0.10583,-0.20109 -0.8255,-1.91559 l -0.32808,0.0212 h -1.3335 v 1.19592 q 0,0.24341 -0.0212,0.37041 -0.0106,0.11642 -0.0952,0.27517 -0.14817,0.28575 -0.8255,0.28575 -0.74083,0 -0.86783,-0.39158 -0.0635,-0.17992 -0.0635,-0.55034 V 158.531 q 0,-0.24341 0.0106,-0.35983 0.0212,-0.127 0.10583,-0.28575 0.14817,-0.28575 0.8255,-0.28575 h 2.286 q 0.93134,0 1.80975,0.67733 0.42334,0.32809 0.6985,0.889 0.27517,0.56092 0.27517,1.24884 0,1.19591 -0.79375,1.9685 0.23283,0.56091 0.71967,1.66158 z m -4.064,-2.69875 h 1.35466 q 0.30692,0 0.61384,-0.23283 0.30691,-0.23284 0.30691,-0.6985 0,-0.46567 -0.30691,-0.6985 -0.30692,-0.24342 -0.635,-0.24342 h -1.3335 z" />
      <path
         id="path4632"
         style="font-style:normal;font-variant:normal;font-weight:normal;font-stretch:normal;font-family:'Fredoka One';-inkscape-font-specification:'Fredoka One';letter-spacing:1.35995829px;fill:#321241;fill-opacity:1;stroke-width:0.26458332"
         d="m 253.44558,164.26717 q -0.27517,-0.33867 -0.27517,-0.60325 0,-0.27517 0.45509,-0.71967 0.26458,-0.254 0.56091,-0.254 0.29634,0 0.8255,0.52917 0.14817,0.17992 0.42334,0.34925 0.27516,0.15875 0.508,0.15875 0.98425,0 0.98425,-0.80433 0,-0.24342 -0.27517,-0.40217 -0.26458,-0.16933 -0.66675,-0.24342 -0.40217,-0.0741 -0.86783,-0.23283 -0.46567,-0.16933 -0.86784,-0.39158 -0.40216,-0.22225 -0.67733,-0.6985 -0.26458,-0.48684 -0.26458,-1.16417 0,-0.93133 0.68791,-1.61925 0.6985,-0.6985 1.89442,-0.6985 0.635,0 1.15358,0.16933 0.52917,0.15875 0.73025,0.32809 l 0.26459,0.20108 q 0.32808,0.30692 0.32808,0.51858 0,0.21167 -0.254,0.58209 -0.35983,0.52916 -0.74083,0.52916 -0.22225,0 -0.55034,-0.21166 -0.0317,-0.0212 -0.127,-0.10584 -0.0847,-0.0847 -0.15875,-0.13758 -0.22225,-0.13758 -0.5715,-0.13758 -0.33866,0 -0.5715,0.16933 -0.22225,0.15875 -0.22225,0.45508 0,0.28575 0.26459,0.46567 0.27516,0.17992 0.67733,0.24342 0.40217,0.0635 0.87842,0.20108 0.47625,0.127 0.87841,0.3175 0.40217,0.1905 0.66675,0.66675 0.27517,0.46567 0.27517,1.15358 0,0.68792 -0.27517,1.21709 -0.27516,0.51858 -0.71966,0.80433 -0.85725,0.56092 -1.83092,0.56092 -0.49742,0 -0.94192,-0.11642 -0.4445,-0.127 -0.71966,-0.30692 -0.56092,-0.33866 -0.78317,-0.65616 z" />
    </g>
    <g
       id="text848"
       style="font-style:normal;font-weight:normal;font-size:17.63888931px;line-height:1.25;font-family:sans-serif;letter-spacing:0px;word-spacing:0px;fill:#54455c;fill-opacity:1;stroke:none;stroke-width:0.26458332"
       aria-label=".">
      <path
         id="path4609"
         style="font-style:normal;font-variant:normal;font-weight:normal;font-stretch:normal;font-size:17.63888931px;font-family:'Fredoka One';-inkscape-font-specification:'Fredoka One';fill:#54455c;fill-opacity:1;stroke-width:0.26458332"
         d="m 267.76914,162.59299 q 0.29986,0.29986 0.29986,1.23472 v 0.0705 q 0,0.42334 -0.0353,0.635 -0.0176,0.19403 -0.17639,0.47625 -0.26459,0.51153 -1.34056,0.51153 -1.05833,0 -1.41111,-0.33514 -0.33514,-0.33514 -0.33514,-1.27 v -0.0705 q 0,-0.4057 0.0176,-0.61736 0.0353,-0.21167 0.17639,-0.47625 0.26458,-0.52917 1.32292,-0.52917 1.07597,0 1.48166,0.37042 z" />
    </g>
  </g>
</svg>
