<?xml version="1.0" encoding="UTF-8" standalone="no"?>
<!-- Created with Inkscape (http://www.inkscape.org/) -->

<svg
   xmlns:dc="http://purl.org/dc/elements/1.1/"
   xmlns:cc="http://creativecommons.org/ns#"
   xmlns:rdf="http://www.w3.org/1999/02/22-rdf-syntax-ns#"
   xmlns:svg="http://www.w3.org/2000/svg"
   xmlns="http://www.w3.org/2000/svg"
   xmlns:sodipodi="http://sodipodi.sourceforge.net/DTD/sodipodi-0.dtd"
   xmlns:inkscape="http://www.inkscape.org/namespaces/inkscape"
   width="14.285384mm"
   height="73.314842mm"
   viewBox="0 0 14.285384 73.314842"
   version="1.1"
   id="svg8"
   inkscape:version="0.92.4 (5da689c313, 2019-01-14)"
   sodipodi:docname="contact__rotated__src.svg">
  <defs
     id="defs2" />
  <sodipodi:namedview
     id="base"
     pagecolor="#ffffff"
     bordercolor="#666666"
     borderopacity="1.0"
     inkscape:pageopacity="0.0"
     inkscape:pageshadow="2"
     inkscape:zoom="1.4142136"
     inkscape:cx="115.24776"
     inkscape:cy="148.64865"
     inkscape:document-units="mm"
     inkscape:current-layer="layer1"
     showgrid="false"
     fit-margin-top="0"
     fit-margin-left="0"
     fit-margin-right="0"
     fit-margin-bottom="0"
     inkscape:window-width="1600"
     inkscape:window-height="847"
     inkscape:window-x="1358"
     inkscape:window-y="102"
     inkscape:window-maximized="1" />
  <metadata
     id="metadata5">
    <rdf:RDF>
      <cc:Work
         rdf:about="">
        <dc:format>image/svg+xml</dc:format>
        <dc:type
           rdf:resource="http://purl.org/dc/dcmitype/StillImage" />
        <dc:title></dc:title>
      </cc:Work>
    </rdf:RDF>
  </metadata>
  <g
     inkscape:label="Layer 1"
     inkscape:groupmode="layer"
     id="layer1"
     transform="translate(0.03790281,-0.10550071)">
    <g
       aria-label="contact"
       transform="rotate(-90)"
       style="font-style:normal;font-variant:normal;font-weight:normal;font-stretch:normal;font-size:19.95165443px;line-height:1.25;font-family:Calibri;-inkscape-font-specification:Calibri;letter-spacing:0px;word-spacing:0px;fill:#331241;fill-opacity:1;stroke:none;stroke-width:1.66263783"
       id="text4520">
      <path
         d="m -69.829047,8.8206318 q 0,0.8379694 0.558646,1.3168092 0.558647,0.458888 1.177148,0.458888 0.638453,0 1.177148,-0.35913 0.558646,-0.3790812 0.897824,-0.3790812 0.59855,0 1.456471,1.0574372 0.458888,0.578598 0.458888,1.037487 0,0.758162 -1.097341,1.416567 -1.137244,0.798066 -2.793232,0.798066 -1.855504,0 -3.571346,-1.336761 -0.818018,-0.638453 -1.336761,-1.69589 -0.518743,-1.07739 -0.518743,-2.3542956 0,-1.2968575 0.518743,-2.3343435 0.518743,-1.0574377 1.336761,-1.6958907 1.655987,-1.3168091 3.531443,-1.3168091 0.758163,0 1.476422,0.2194682 0.71826,0.1995165 1.057438,0.399033 l 0.319227,0.1995166 q 0.359129,0.2394198 0.558646,0.3790814 0.518743,0.3990331 0.518743,0.9177761 0,0.4987914 -0.418985,1.1372443 -0.718259,1.097341 -1.376664,1.097341 -0.379081,0 -1.077389,-0.4389364 -0.35913,-0.3391781 -1.037486,-0.3391781 -0.658405,0 -1.237003,0.4788397 -0.578598,0.4788397 -0.578598,1.3367609 z"
         style="font-style:normal;font-variant:normal;font-weight:normal;font-stretch:normal;font-family:'Fredoka One';-inkscape-font-specification:'Fredoka One';fill:#331241;fill-opacity:1;stroke-width:1.66263783"
         id="path4522" />
      <path
         d="m -63.093805,8.8206318 q 0,-2.3941986 1.675939,-3.9504276 1.675939,-1.5562291 3.830718,-1.5562291 2.154779,0 3.810766,1.5562291 1.655987,1.5362774 1.655987,3.9304759 0,1.6559869 -0.857921,2.9528449 -0.857921,1.276906 -2.094924,1.895407 -1.217051,0.59855 -2.53386,0.59855 -1.316809,0 -2.553811,-0.638453 -1.237003,-0.658405 -2.094924,-1.915359 -0.83797,-1.276906 -0.83797,-2.8730382 z m 4.169896,1.4365192 q 0.638453,0.47884 1.296858,0.47884 0.658404,0 1.316809,-0.498792 0.658404,-0.4987911 0.658404,-1.4764222 0,-0.9776311 -0.618501,-1.4564708 -0.618501,-0.4788397 -1.336761,-0.4788397 -0.718259,0 -1.336761,0.4987914 -0.618501,0.4987913 -0.618501,1.4764224 0,0.9576794 0.638453,1.4564709 z"
         style="font-style:normal;font-variant:normal;font-weight:normal;font-stretch:normal;font-family:'Fredoka One';-inkscape-font-specification:'Fredoka One';fill:#331241;fill-opacity:1;stroke-width:1.66263783"
         id="path4524" />
      <path
         d="m -44.985497,3.553395 q 1.995165,0 3.311974,1.5362774 1.336761,1.5163257 1.336761,3.7110077 v 3.5114909 q 0,0.458888 -0.0399,0.698308 -0.01995,0.219468 -0.159613,0.498792 -0.279324,0.538694 -1.55623,0.538694 -1.416567,0 -1.636035,-0.738211 -0.11971,-0.339178 -0.11971,-1.017534 V 8.7807284 q 0,-0.8180178 -0.47884,-1.2769058 -0.458888,-0.4588881 -1.256954,-0.4588881 -0.778115,0 -1.276906,0.4788397 -0.47884,0.4788397 -0.47884,1.2569542 v 3.5314426 q 0,0.458888 -0.0399,0.698308 -0.01995,0.219468 -0.179565,0.498792 -0.259371,0.538694 -1.536277,0.538694 -1.256954,0 -1.536278,-0.538694 -0.139661,-0.299275 -0.179565,-0.518743 -0.01995,-0.23942 -0.01995,-0.698308 V 5.229334 q 0,-0.4389364 0.01995,-0.6584046 0.0399,-0.2394199 0.199517,-0.5187431 0.279323,-0.4987913 1.536277,-0.4987913 1.217051,0 1.496375,0.458888 0.199516,0.3391782 0.199516,0.8180179 0.07981,-0.1396616 0.35913,-0.3990331 0.279323,-0.2593715 0.538694,-0.4189848 0.678357,-0.458888 1.496375,-0.458888 z"
         style="font-style:normal;font-variant:normal;font-weight:normal;font-stretch:normal;font-family:'Fredoka One';-inkscape-font-specification:'Fredoka One';fill:#331241;fill-opacity:1;stroke-width:1.66263783"
         id="path4526" />
      <path
         d="m -32.840861,7.0848378 -1.296857,-0.079807 v 2.7533283 q 0,0.5386945 0.159613,0.7781145 0.179565,0.23942 0.638453,0.23942 0.47884,0 0.71826,0.0399 0.259371,0.01995 0.538694,0.179565 0.458888,0.259372 0.458888,1.336761 0,1.256954 -0.558646,1.536277 -0.299275,0.139662 -0.538695,0.179565 -0.219468,0.01995 -0.658404,0.01995 -2.074972,0 -3.152362,-0.937728 -1.077389,-0.937728 -1.077389,-3.1723129 V 7.0050312 q -0.379081,0.059855 -0.818018,0.059855 -0.438936,0 -0.738211,-0.3391782 -0.279323,-0.3391781 -0.279323,-1.1571959 0,-0.8180179 0.09976,-1.1771476 0.09976,-0.3790815 0.279323,-0.5386947 0.319227,-0.2593715 0.798066,-0.2593715 l 0.658405,0.079807 V 1.6180845 q 0,-0.458888 0.01995,-0.67835625 0.0399,-0.2194682 0.199516,-0.4788397 0.259372,-0.49879136 1.536278,-0.49879136 1.356712,0 1.616084,0.73821121 0.09976,0.3192265 0.09976,1.0175344 v 1.9552621 q 0.877873,-0.079807 1.316809,-0.079807 0.458888,0 0.678356,0.039903 0.23942,0.019952 0.538695,0.1795649 0.518743,0.2593715 0.518743,1.5362774 0,1.2569542 -0.538695,1.5362774 -0.299274,0.1396616 -0.538694,0.1795649 -0.219469,0.019952 -0.678357,0.019952 z"
         style="font-style:normal;font-variant:normal;font-weight:normal;font-stretch:normal;font-family:'Fredoka One';-inkscape-font-specification:'Fredoka One';fill:#331241;fill-opacity:1;stroke-width:1.66263783"
         id="path4528" />
      <path
         d="m -23.159947,4.6706876 q 0.11971,-1.1172926 1.576181,-1.1172926 0.778114,0 1.157196,0.1197099 0.379081,0.1197099 0.518743,0.4189848 0.159613,0.2992748 0.179565,0.5386946 0.0399,0.2194682 0.0399,0.6783563 V 12.29222 q 0,0.458888 -0.0399,0.698308 -0.01995,0.219468 -0.159614,0.518743 -0.279323,0.518743 -1.376664,0.518743 -1.077389,0 -1.45647,-0.259372 -0.35913,-0.279323 -0.418985,-0.798066 -0.738211,1.057438 -2.474005,1.057438 -1.715843,0 -3.192265,-1.576181 -1.476423,-1.576181 -1.476423,-3.6511529 0,-2.0949237 1.476423,-3.6511528 1.496374,-1.5761807 3.272071,-1.5761807 0.678356,0 1.237003,0.2394199 0.558646,0.2394198 0.778114,0.458888 0.219469,0.1995166 0.35913,0.3990331 z m -3.631201,4.1499442 q 0,0.6584046 0.518743,1.1970992 0.518743,0.518743 1.256954,0.518743 0.738211,0 1.217051,-0.5386946 0.498792,-0.5386947 0.498792,-1.1771476 0,-0.6584046 -0.47884,-1.217051 -0.458888,-0.5586463 -1.256954,-0.5586463 -0.778115,0 -1.276906,0.5586463 -0.47884,0.5586464 -0.47884,1.217051 z"
         style="font-style:normal;font-variant:normal;font-weight:normal;font-stretch:normal;font-family:'Fredoka One';-inkscape-font-specification:'Fredoka One';fill:#331241;fill-opacity:1;stroke-width:1.66263783"
         id="path4530" />
      <path
         d="m -14.806128,8.8206318 q 0,0.8379694 0.558646,1.3168092 0.558646,0.458888 1.177148,0.458888 0.638453,0 1.177147,-0.35913 0.558647,-0.3790812 0.897825,-0.3790812 0.598549,0 1.4564706,1.0574372 0.458888,0.578598 0.458888,1.037487 0,0.758162 -1.0973406,1.416567 -1.137245,0.798066 -2.793232,0.798066 -1.855504,0 -3.571346,-1.336761 -0.818018,-0.638453 -1.336761,-1.69589 -0.518743,-1.07739 -0.518743,-2.3542956 0,-1.2968575 0.518743,-2.3343435 0.518743,-1.0574377 1.336761,-1.6958907 1.655987,-1.3168091 3.531443,-1.3168091 0.758163,0 1.476422,0.2194682 0.71826,0.1995165 1.057438,0.399033 l 0.319226,0.1995166 q 0.3591301,0.2394198 0.5586466,0.3790814 0.518743,0.3990331 0.518743,0.9177761 0,0.4987914 -0.4189847,1.1372443 -0.7182599,1.097341 -1.3766639,1.097341 -0.379082,0 -1.07739,-0.4389364 -0.359129,-0.3391781 -1.037486,-0.3391781 -0.658404,0 -1.237002,0.4788397 -0.578598,0.4788397 -0.578598,1.3367609 z"
         style="font-style:normal;font-variant:normal;font-weight:normal;font-stretch:normal;font-family:'Fredoka One';-inkscape-font-specification:'Fredoka One';fill:#331241;fill-opacity:1;stroke-width:1.66263783"
         id="path4532" />
      <path
         d="m -1.8612463,7.0848378 -1.2968575,-0.079807 v 2.7533283 q 0,0.5386945 0.1596132,0.7781145 0.1795649,0.23942 0.6384529,0.23942 0.4788397,0 0.7182596,0.0399 0.2593715,0.01995 0.5386947,0.179565 0.45888802,0.259372 0.45888802,1.336761 0,1.256954 -0.55864632,1.536277 -0.2992748,0.139662 -0.5386947,0.179565 -0.2194682,0.01995 -0.6584046,0.01995 -2.074972,0 -3.1523614,-0.937728 -1.0773893,-0.937728 -1.0773893,-3.1723129 V 7.0050312 q -0.3790814,0.059855 -0.8180178,0.059855 -0.4389364,0 -0.7382113,-0.3391782 -0.2793231,-0.3391781 -0.2793231,-1.1571959 0,-0.8180179 0.099758,-1.1771476 0.099758,-0.3790815 0.2793231,-0.5386947 0.3192265,-0.2593715 0.7980662,-0.2593715 l 0.6584046,0.079807 V 1.6180845 q 0,-0.458888 0.019952,-0.67835625 0.039903,-0.2194682 0.1995166,-0.4788397 0.2593715,-0.49879136 1.5362774,-0.49879136 1.3567125,0 1.616084,0.73821121 0.099758,0.3192265 0.099758,1.0175344 v 1.9552621 q 0.8778728,-0.079807 1.3168092,-0.079807 0.458888,0 0.6783562,0.039903 0.23941985,0.019952 0.53869467,0.1795649 0.51874302,0.2593715 0.51874302,1.5362774 0,1.2569542 -0.53869467,1.5362774 -0.29927482,0.1396616 -0.53869472,0.1795649 -0.2194682,0.019952 -0.6783562,0.019952 z"
         style="font-style:normal;font-variant:normal;font-weight:normal;font-stretch:normal;font-family:'Fredoka One';-inkscape-font-specification:'Fredoka One';fill:#331241;fill-opacity:1;stroke-width:1.66263783"
         id="path4534" />
    </g>
  </g>
</svg>
