<?xml version="1.0" encoding="UTF-8" standalone="no"?>
<svg
   xmlns:dc="http://purl.org/dc/elements/1.1/"
   xmlns:cc="http://creativecommons.org/ns#"
   xmlns:rdf="http://www.w3.org/1999/02/22-rdf-syntax-ns#"
   xmlns:svg="http://www.w3.org/2000/svg"
   xmlns="http://www.w3.org/2000/svg"
   id="svg8"
   version="1.1"
   viewBox="0 0 4.6048436 61.188286"
   height="61.188286mm"
   width="4.6048436mm">
  <defs
     id="defs2" />
  <metadata
     id="metadata5">
    <rdf:RDF>
      <cc:Work
         rdf:about="">
        <dc:format>image/svg+xml</dc:format>
        <dc:type
           rdf:resource="http://purl.org/dc/dcmitype/StillImage" />
        <dc:title></dc:title>
      </cc:Work>
    </rdf:RDF>
  </metadata>
  <g
     transform="translate(-34.844797,-65.032042)"
     id="layer1">
    <g
       id="text817"
       style="font-style:normal;font-weight:normal;font-size:6.09913063px;line-height:1.25;font-family:sans-serif;letter-spacing:0px;word-spacing:0px;fill:#56445e;fill-opacity:1;stroke:none;stroke-width:0.15247826"
       transform="rotate(-90)"
       aria-label="WHAT THEY SAY...">
      <path
         id="path829"
         style="font-style:normal;font-variant:normal;font-weight:normal;font-stretch:normal;font-family:'Fredoka One';-inkscape-font-specification:'Fredoka One';letter-spacing:0.50800002px;fill:#56445e;fill-opacity:1;stroke-width:0.15247826"
         d="m -120.71891,34.942383 q 0.40864,0.146379 0.40864,0.390344 0,0.07929 -0.0732,0.298858 l -1.17103,3.385017 q -0.0122,0.04269 -0.0427,0.103685 -0.0305,0.06099 -0.16467,0.164677 -0.12808,0.09759 -0.31106,0.09759 -0.17687,0 -0.31105,-0.09759 -0.12808,-0.103685 -0.17078,-0.201272 l -0.7136,-2.1042 q -0.677,2.000515 -0.6892,2.03711 -0.0122,0.03659 -0.0549,0.103685 -0.0427,0.06709 -0.0976,0.121983 -0.14028,0.14028 -0.33545,0.14028 -0.19517,0 -0.32325,-0.09149 -0.12199,-0.09149 -0.16468,-0.182974 l -0.0427,-0.09149 -1.17714,-3.385017 q -0.0671,-0.201272 -0.0671,-0.298858 0,-0.243965 0.40865,-0.384245 0.17687,-0.06099 0.31715,-0.06099 0.14638,0 0.21957,0.09759 0.0793,0.09759 0.14028,0.298857 l 0.6709,2.03711 0.66481,-2.006614 q 0.0854,-0.256164 0.31105,-0.35375 0.0976,-0.04269 0.25007,-0.04269 0.15858,0 0.29276,0.103685 0.13418,0.09759 0.17077,0.195173 l 0.7014,2.116398 0.67091,-2.049308 q 0.0488,-0.14028 0.0793,-0.20737 0.0305,-0.06709 0.10978,-0.128082 0.0854,-0.06709 0.20737,-0.06709 0.12198,0 0.28666,0.06099 z" />
      <path
         id="path831"
         style="font-style:normal;font-variant:normal;font-weight:normal;font-stretch:normal;font-family:'Fredoka One';-inkscape-font-specification:'Fredoka One';letter-spacing:0.50800002px;fill:#56445e;fill-opacity:1;stroke-width:0.15247826"
         d="m -116.70972,35.082663 q 0.0488,-0.09149 0.16467,-0.128082 0.11589,-0.03659 0.29276,-0.03659 0.17688,0 0.28056,0.0305 0.10369,0.0305 0.15858,0.07319 0.0549,0.04269 0.0854,0.121983 0.0305,0.103685 0.0305,0.317155 v 3.385017 q 0,0.14028 -0.0122,0.21347 -0.006,0.06709 -0.0549,0.158577 -0.0854,0.164677 -0.47573,0.164677 -0.42694,0 -0.50013,-0.225668 -0.0366,-0.103685 -0.0366,-0.317155 v -1.238123 h -1.61627 v 1.244222 q 0,0.14028 -0.0122,0.21347 -0.006,0.06709 -0.0549,0.158577 -0.0854,0.164677 -0.47574,0.164677 -0.42694,0 -0.50013,-0.225668 -0.0366,-0.103685 -0.0366,-0.317155 V 35.45471 q 0,-0.14028 0.006,-0.207371 0.0122,-0.07319 0.061,-0.164676 0.0854,-0.164677 0.47573,-0.164677 0.42694,0 0.50623,0.225668 0.0305,0.103685 0.0305,0.317155 v 1.244223 h 1.61627 V 35.45471 q 0,-0.14028 0.006,-0.207371 0.0122,-0.07319 0.061,-0.164676 z" />
      <path
         id="path833"
         style="font-style:normal;font-variant:normal;font-weight:normal;font-stretch:normal;font-family:'Fredoka One';-inkscape-font-specification:'Fredoka One';letter-spacing:0.50800002px;fill:#56445e;fill-opacity:1;stroke-width:0.15247826"
         d="m -112.12007,35.235141 1.64676,3.403315 q 0.10369,0.20737 0.10369,0.311056 0,0.219568 -0.35375,0.396443 -0.20737,0.103685 -0.32935,0.103685 -0.11589,0 -0.19518,-0.05489 -0.0732,-0.05489 -0.10978,-0.115883 -0.0305,-0.06099 -0.0915,-0.182974 l -0.31715,-0.658706 h -1.68946 l -0.31716,0.658706 q -0.061,0.121982 -0.0976,0.176875 -0.0305,0.05489 -0.10979,0.115883 -0.0732,0.05489 -0.19517,0.05489 -0.11588,0 -0.32325,-0.103685 -0.35375,-0.170776 -0.35375,-0.390344 0,-0.103686 0.10368,-0.311056 l 1.64677,-3.409414 q 0.0671,-0.14028 0.20127,-0.225668 0.14028,-0.08539 0.29276,-0.08539 0.32935,0 0.48793,0.317155 z m -0.49403,1.463791 -0.40254,0.835581 h 0.81118 z" />
      <path
         id="path835"
         style="font-style:normal;font-variant:normal;font-weight:normal;font-stretch:normal;font-family:'Fredoka One';-inkscape-font-specification:'Fredoka One';letter-spacing:0.50800002px;fill:#56445e;fill-opacity:1;stroke-width:0.15247826"
         d="m -110.37318,34.911887 h 3.39111 q 0.19517,0 0.28666,0.04879 0.0915,0.04269 0.12198,0.14028 0.0305,0.09759 0.0305,0.256164 0,0.158577 -0.0305,0.256163 -0.0305,0.09149 -0.10368,0.128082 -0.10979,0.05489 -0.31106,0.05489 h -1.16493 v 3.067863 q 0,0.14028 -0.0122,0.20737 -0.006,0.06709 -0.0549,0.158578 -0.0427,0.08539 -0.15858,0.121982 -0.11588,0.03659 -0.30496,0.03659 -0.18907,0 -0.30495,-0.03659 -0.10979,-0.0366 -0.15858,-0.121982 -0.0427,-0.09149 -0.0549,-0.158578 -0.006,-0.07319 -0.006,-0.213469 v -3.061764 h -1.17103 q -0.19518,0 -0.28666,-0.04269 -0.0915,-0.04879 -0.12199,-0.146379 -0.0305,-0.09759 -0.0305,-0.256163 0,-0.158578 0.0305,-0.250065 0.0305,-0.09759 0.10369,-0.134181 0.10978,-0.05489 0.31106,-0.05489 z" />
      <path
         id="path837"
         style="font-style:normal;font-variant:normal;font-weight:normal;font-stretch:normal;font-family:'Fredoka One';-inkscape-font-specification:'Fredoka One';letter-spacing:0.50800002px;fill:#56445e;fill-opacity:1;stroke-width:0.15247826"
         d="m -103.35335,34.911887 h 3.391113 q 0.195172,0 0.286659,0.04879 0.09149,0.04269 0.121982,0.14028 0.0305,0.09759 0.0305,0.256164 0,0.158577 -0.0305,0.256163 -0.0305,0.09149 -0.103685,0.128082 -0.109784,0.05489 -0.311056,0.05489 h -1.164933 v 3.067863 q 0,0.14028 -0.0122,0.20737 -0.006,0.06709 -0.0549,0.158578 -0.0427,0.08539 -0.15858,0.121982 -0.11588,0.03659 -0.30495,0.03659 -0.18908,0 -0.30496,-0.03659 -0.10979,-0.0366 -0.15858,-0.121982 -0.0427,-0.09149 -0.0549,-0.158578 -0.006,-0.07319 -0.006,-0.213469 v -3.061764 h -1.17103 q -0.19518,0 -0.28666,-0.04269 -0.0915,-0.04879 -0.12198,-0.146379 -0.0305,-0.09759 -0.0305,-0.256163 0,-0.158578 0.0305,-0.250065 0.0305,-0.09759 0.10368,-0.134181 0.10978,-0.05489 0.31106,-0.05489 z" />
      <path
         id="path839"
         style="font-style:normal;font-variant:normal;font-weight:normal;font-stretch:normal;font-family:'Fredoka One';-inkscape-font-specification:'Fredoka One';letter-spacing:0.50800002px;fill:#56445e;fill-opacity:1;stroke-width:0.15247826"
         d="m -95.919982,35.082663 q 0.04879,-0.09149 0.164677,-0.128082 0.115883,-0.03659 0.292758,-0.03659 0.176875,0 0.28056,0.0305 0.103685,0.0305 0.158577,0.07319 0.05489,0.04269 0.08539,0.121983 0.0305,0.103685 0.0305,0.317155 v 3.385017 q 0,0.14028 -0.0122,0.21347 -0.0061,0.06709 -0.05489,0.158577 -0.08539,0.164677 -0.475732,0.164677 -0.426939,0 -0.500128,-0.225668 -0.03659,-0.103685 -0.03659,-0.317155 v -1.238123 h -1.61627 v 1.244222 q 0,0.14028 -0.0122,0.21347 -0.0061,0.06709 -0.05489,0.158577 -0.08539,0.164677 -0.475732,0.164677 -0.42694,0 -0.500129,-0.225668 -0.0366,-0.103685 -0.0366,-0.317155 V 35.45471 q 0,-0.14028 0.0061,-0.207371 0.0122,-0.07319 0.06099,-0.164676 0.08539,-0.164677 0.475733,-0.164677 0.426939,0 0.506228,0.225668 0.0305,0.103685 0.0305,0.317155 v 1.244223 h 1.61627 V 35.45471 q 0,-0.14028 0.0061,-0.207371 0.0122,-0.07319 0.06099,-0.164676 z" />
      <path
         id="path841"
         style="font-style:normal;font-variant:normal;font-weight:normal;font-stretch:normal;font-family:'Fredoka One';-inkscape-font-specification:'Fredoka One';letter-spacing:0.50800002px;fill:#56445e;fill-opacity:1;stroke-width:0.15247826"
         d="m -92.830713,38.309103 h 1.878532 q 0.14028,0 0.207371,0.0122 0.07319,0.0061 0.164676,0.05489 0.164677,0.08539 0.164677,0.475732 0,0.42694 -0.225668,0.500129 -0.103685,0.03659 -0.317155,0.03659 h -2.415256 q -0.426939,0 -0.500128,-0.231767 -0.03659,-0.09759 -0.03659,-0.311056 V 35.45471 q 0,-0.311056 0.115883,-0.42084 0.115884,-0.115884 0.439138,-0.115884 h 2.403057 q 0.14028,0 0.207371,0.0122 0.07319,0.0061 0.164676,0.05489 0.164677,0.08539 0.164677,0.475732 0,0.426939 -0.225668,0.500129 -0.103685,0.03659 -0.317155,0.03659 h -1.872433 v 0.616013 h 1.207628 q 0.14028,0 0.20737,0.0122 0.07319,0.0061 0.164677,0.05489 0.164676,0.08539 0.164676,0.475732 0,0.426939 -0.231767,0.500129 -0.103685,0.0366 -0.317154,0.0366 h -1.19543 z" />
      <path
         id="path843"
         style="font-style:normal;font-variant:normal;font-weight:normal;font-stretch:normal;font-family:'Fredoka One';-inkscape-font-specification:'Fredoka One';letter-spacing:0.50800002px;fill:#56445e;fill-opacity:1;stroke-width:0.15247826"
         d="m -85.957222,35.003374 q 0.298857,0.207371 0.298857,0.402543 0,0.115883 -0.14028,0.323254 l -1.317412,1.970019 v 1.164934 q 0,0.14028 -0.0122,0.213469 -0.0061,0.06709 -0.05489,0.158578 -0.04879,0.09149 -0.164677,0.128081 -0.115883,0.03659 -0.311055,0.03659 -0.195173,0 -0.311056,-0.03659 -0.115884,-0.03659 -0.164677,-0.128081 -0.04879,-0.09759 -0.06099,-0.164677 -0.0061,-0.07319 -0.0061,-0.219569 V 37.69919 l -1.317412,-1.970019 q -0.14028,-0.207371 -0.14028,-0.323254 0,-0.195172 0.268362,-0.372047 0.268361,-0.182974 0.384245,-0.182974 0.115883,0 0.182974,0.04879 0.103685,0.06709 0.219568,0.250064 l 0.945366,1.512585 0.945365,-1.512585 q 0.115883,-0.182974 0.201271,-0.237866 0.08539,-0.06099 0.195172,-0.06099 0.115884,0 0.359849,0.152478 z" />
      <path
         id="path845"
         style="font-style:normal;font-variant:normal;font-weight:normal;font-stretch:normal;font-family:'Fredoka One';-inkscape-font-specification:'Fredoka One';letter-spacing:0.50800002px;fill:#56445e;fill-opacity:1;stroke-width:0.15247826"
         d="m -82.69398,38.760439 q -0.158577,-0.195173 -0.158577,-0.347651 0,-0.158577 0.262262,-0.414741 0.152479,-0.146379 0.323254,-0.146379 0.170776,0 0.475733,0.304957 0.08539,0.103685 0.243965,0.201271 0.158577,0.09149 0.292758,0.09149 0.567219,0 0.567219,-0.463534 0,-0.14028 -0.158577,-0.231767 -0.152478,-0.09759 -0.384245,-0.14028 -0.231767,-0.04269 -0.500129,-0.134181 -0.268362,-0.09759 -0.500129,-0.225668 -0.231767,-0.128081 -0.390344,-0.402542 -0.152478,-0.28056 -0.152478,-0.670905 0,-0.536723 0.396443,-0.933167 0.402543,-0.402542 1.091744,-0.402542 0.365948,0 0.664806,0.09759 0.304956,0.09149 0.42084,0.189073 l 0.152478,0.115883 q 0.189073,0.176875 0.189073,0.298858 0,0.121982 -0.146379,0.335452 -0.207371,0.304956 -0.426939,0.304956 -0.128082,0 -0.317155,-0.121982 -0.0183,-0.0122 -0.07319,-0.06099 -0.04879,-0.04879 -0.09149,-0.07929 -0.128081,-0.07929 -0.329353,-0.07929 -0.195172,0 -0.329353,0.09759 -0.128081,0.09149 -0.128081,0.262263 0,0.164676 0.152478,0.268362 0.158577,0.103685 0.390344,0.14028 0.231767,0.03659 0.506228,0.115883 0.274461,0.07319 0.506228,0.182974 0.231767,0.109784 0.384245,0.384245 0.158577,0.268362 0.158577,0.664805 0,0.396444 -0.158577,0.7014 -0.158577,0.298858 -0.414741,0.463534 -0.494029,0.323254 -1.055149,0.323254 -0.28666,0 -0.542823,-0.06709 -0.256163,-0.07319 -0.414741,-0.176875 -0.323254,-0.195172 -0.451336,-0.378146 z" />
      <path
         id="path847"
         style="font-style:normal;font-variant:normal;font-weight:normal;font-stretch:normal;font-family:'Fredoka One';-inkscape-font-specification:'Fredoka One';letter-spacing:0.50800002px;fill:#56445e;fill-opacity:1;stroke-width:0.15247826"
         d="m -76.349587,35.235141 1.646765,3.403315 q 0.103685,0.20737 0.103685,0.311056 0,0.219568 -0.353749,0.396443 -0.207371,0.103685 -0.329353,0.103685 -0.115884,0 -0.195173,-0.05489 -0.07319,-0.05489 -0.109784,-0.115883 -0.0305,-0.06099 -0.09149,-0.182974 l -0.317155,-0.658706 h -1.689459 l -0.317155,0.658706 q -0.06099,0.121982 -0.09759,0.176875 -0.0305,0.05489 -0.109784,0.115883 -0.07319,0.05489 -0.195172,0.05489 -0.115884,0 -0.323254,-0.103685 -0.35375,-0.170776 -0.35375,-0.390344 0,-0.103686 0.103685,-0.311056 l 1.646766,-3.409414 q 0.06709,-0.14028 0.201271,-0.225668 0.14028,-0.08539 0.292758,-0.08539 0.329353,0 0.487931,0.317155 z m -0.49403,1.463791 -0.402543,0.835581 h 0.811185 z" />
      <path
         id="path849"
         style="font-style:normal;font-variant:normal;font-weight:normal;font-stretch:normal;font-family:'Fredoka One';-inkscape-font-specification:'Fredoka One';letter-spacing:0.50800002px;fill:#56445e;fill-opacity:1;stroke-width:0.15247826"
         d="m -71.119431,35.003374 q 0.298858,0.207371 0.298858,0.402543 0,0.115883 -0.14028,0.323254 l -1.317412,1.970019 v 1.164934 q 0,0.14028 -0.0122,0.213469 -0.0061,0.06709 -0.05489,0.158578 -0.04879,0.09149 -0.164676,0.128081 -0.115884,0.03659 -0.311056,0.03659 -0.195172,0 -0.311056,-0.03659 -0.115883,-0.03659 -0.164676,-0.128081 -0.04879,-0.09759 -0.06099,-0.164677 -0.0061,-0.07319 -0.0061,-0.219569 V 37.69919 l -1.317412,-1.970019 q -0.14028,-0.207371 -0.14028,-0.323254 0,-0.195172 0.268362,-0.372047 0.268362,-0.182974 0.384245,-0.182974 0.115884,0 0.182974,0.04879 0.103685,0.06709 0.219569,0.250064 l 0.945365,1.512585 0.945365,-1.512585 q 0.115884,-0.182974 0.201272,-0.237866 0.08539,-0.06099 0.195172,-0.06099 0.115883,0 0.359848,0.152478 z" />
      <path
         id="path851"
         style="font-style:normal;font-variant:normal;font-weight:normal;font-stretch:normal;font-family:'Fredoka One';-inkscape-font-specification:'Fredoka One';letter-spacing:0.50800002px;fill:#56445e;fill-opacity:1;stroke-width:0.15247826"
         d="m -69.03452,38.382292 q 0.103685,0.103686 0.103685,0.42694 v 0.0244 q 0,0.146379 -0.0122,0.219569 -0.0061,0.06709 -0.06099,0.164676 -0.09149,0.176875 -0.463534,0.176875 -0.365948,0 -0.487931,-0.115883 -0.115883,-0.115884 -0.115883,-0.439138 v -0.0244 q 0,-0.14028 0.0061,-0.21347 0.0122,-0.07319 0.06099,-0.164676 0.09149,-0.182974 0.457435,-0.182974 0.372047,0 0.512327,0.128081 z" />
      <path
         id="path853"
         style="font-style:normal;font-variant:normal;font-weight:normal;font-stretch:normal;font-family:'Fredoka One';-inkscape-font-specification:'Fredoka One';letter-spacing:0.50800002px;fill:#56445e;fill-opacity:1;stroke-width:0.15247826"
         d="m -67.085122,38.382292 q 0.103685,0.103686 0.103685,0.42694 v 0.0244 q 0,0.146379 -0.0122,0.219569 -0.0061,0.06709 -0.06099,0.164676 -0.09149,0.176875 -0.463534,0.176875 -0.365948,0 -0.48793,-0.115883 -0.115884,-0.115884 -0.115884,-0.439138 v -0.0244 q 0,-0.14028 0.0061,-0.21347 0.0122,-0.07319 0.06099,-0.164676 0.09149,-0.182974 0.457435,-0.182974 0.372047,0 0.512327,0.128081 z" />
      <path
         id="path855"
         style="font-style:normal;font-variant:normal;font-weight:normal;font-stretch:normal;font-family:'Fredoka One';-inkscape-font-specification:'Fredoka One';letter-spacing:0.50800002px;fill:#56445e;fill-opacity:1;stroke-width:0.15247826"
         d="m -65.135728,38.382292 q 0.103686,0.103686 0.103686,0.42694 v 0.0244 q 0,0.146379 -0.0122,0.219569 -0.0061,0.06709 -0.06099,0.164676 -0.09149,0.176875 -0.463534,0.176875 -0.365948,0 -0.48793,-0.115883 -0.115884,-0.115884 -0.115884,-0.439138 v -0.0244 q 0,-0.14028 0.0061,-0.21347 0.0122,-0.07319 0.06099,-0.164676 0.09149,-0.182974 0.457435,-0.182974 0.372046,0 0.512326,0.128081 z" />
    </g>
  </g>
</svg>
